<?xml version="1.0" encoding="UTF-8" standalone="no"?>
<!-- Created with Inkscape (http://www.inkscape.org/) -->

<svg
   width="1000mm"
   height="999mm"
   viewBox="0 0 1000 999"
   version="1.1"
   id="svg1"
   inkscape:export-filename="bill.svg"
   inkscape:export-xdpi="96"
   inkscape:export-ydpi="96"
   xmlns:inkscape="http://www.inkscape.org/namespaces/inkscape"
   xmlns:sodipodi="http://sodipodi.sourceforge.net/DTD/sodipodi-0.dtd"
   xmlns="http://www.w3.org/2000/svg"
   xmlns:svg="http://www.w3.org/2000/svg">
  <sodipodi:namedview
     id="namedview1"
     pagecolor="#ffffff"
     bordercolor="#000000"
     borderopacity="0.25"
     inkscape:showpageshadow="2"
     inkscape:pageopacity="0.0"
     inkscape:pagecheckerboard="0"
     inkscape:deskcolor="#d1d1d1"
     inkscape:document-units="mm">
    <inkscape:page
       x="0"
       y="0"
       width="1000"
       height="999"
       id="page2"
       margin="0"
       bleed="0" />
  </sodipodi:namedview>
  <defs
     id="defs1" />
  <g
     inkscape:label="Calque 1"
     inkscape:groupmode="layer"
     id="layer1">
    <path
       id="path1"
       style="fill:#000000;stroke-width:0.486916"
       d="m 490.30341,55.796594 c -13.45235,0.0026 -26.99688,0.27302 -33.34422,0.80977 -18.51216,1.56547 -34.59286,3.511332 -45.4272,5.497339 -16.03164,2.938698 -27.35194,5.358987 -41.41866,8.85579 -11.98955,2.980441 -36.24629,10.792515 -50.43775,16.243453 -16.92668,6.501509 -43.56465,18.928564 -58.78815,27.425714 -5.51139,3.07625 -10.75679,6.00086 -11.65665,6.49935 -0.89985,0.49851 -1.95222,1.12419 -2.33836,1.39061 -0.38613,0.2664 -4.45985,2.82553 -9.05267,5.68647 -8.23269,5.12825 -17.38542,11.11805 -18.03715,11.80394 -0.18372,0.19334 -1.1807,0.86031 -2.21536,1.48259 -1.03469,0.62226 -2.38728,1.51464 -3.00602,1.98283 -0.61876,0.4682 -5.18334,3.91033 -10.14357,7.64914 -13.72613,10.34614 -22.22742,17.38115 -37.66023,31.16451 -15.07635,13.46498 -42.29976,43.64059 -54.8659,60.81541 -0.7339,1.00304 -1.9358,2.60442 -2.67064,3.55895 -16.412984,21.31959 -36.757099,56.32744 -48.142284,82.84249 -1.663633,3.87441 -3.305876,7.61246 -3.649389,8.30647 -2.168791,4.3817 -9.238303,23.88152 -12.694833,35.01647 -1.454212,4.68463 -2.916492,9.36919 -3.249931,10.41022 -0.333438,1.04102 -1.250456,4.44802 -2.037601,7.57111 -0.787144,3.12309 -1.747781,6.79652 -2.134754,8.16333 -0.386973,1.36681 -0.801572,3.21417 -0.920874,4.10517 -0.119397,0.89097 -0.709994,3.60537 -1.312581,6.03219 -0.602605,2.42687 -1.203054,5.12226 -1.334286,5.98982 -0.131175,0.8675 -0.829235,4.84246 -1.551843,8.83305 -1.929525,10.65578 -3.514048,22.79051 -4.942334,37.85557 -1.140187,12.03346 -1.148677,51.86124 -0.01292,62.77705 2.246507,21.59115 3.544063,30.98455 6.450252,46.68862 4.442113,24.00366 17.665027,66.38697 25.807727,82.72053 0.710924,1.42603 1.292945,2.8098 1.292945,3.07475 0,2.42047 18.338684,37.77666 26.310022,50.72455 2.431067,3.94881 4.419885,7.27619 4.419885,7.39387 0,0.24876 4.185149,6.45523 11.080459,16.4331 4.86777,7.04395 14.43751,19.81066 19.36264,25.83098 1.4439,1.76491 3.52742,4.32056 4.6297,5.67873 5.62978,6.93658 19.69666,22.33714 27.0309,29.59354 18.46876,18.27275 30.76074,28.98147 49.41973,43.05525 4.24774,3.2039 8.77541,6.63336 10.0614,7.62073 1.286,0.98741 3.24008,2.33429 4.34237,2.99309 1.10228,0.65883 2.15417,1.3482 2.33784,1.53169 1.51792,1.51612 17.16777,11.55746 27.75541,17.80874 23.07678,13.62522 54.83228,28.76602 76.79428,36.61533 17.58943,6.28654 26.05743,8.926 44.75903,13.95057 7.64802,2.05484 9.7361,2.55795 17.36948,4.18579 1.83713,0.3918 4.39221,0.96614 5.67821,1.27641 1.286,0.31024 3.39022,0.72953 4.6762,0.93173 1.286,0.20224 2.78922,0.48958 3.34036,0.6382 0.55115,0.14859 2.05439,0.42506 3.34037,0.61443 1.286,0.18941 3.69096,0.60118 5.34437,0.91519 2.93523,0.55741 7.9289,1.30974 16.70079,2.51613 4.55754,0.6268 12.55546,1.47424 27.05623,2.86649 l -5.2e-4,5.2e-4 c 12.65829,1.21542 57.53505,1.24103 70.63962,0.0403 24.23233,-2.22032 38.24392,-3.87701 45.60032,-5.39243 1.46974,-0.3028 8.68466,-1.69707 16.03313,-3.098 30.83685,-5.87893 57.13571,-13.68023 87.84838,-26.05991 12.74247,-5.13626 37.77906,-16.87835 47.43122,-22.24515 4.22537,-2.34941 8.58447,-4.75802 9.68674,-5.35213 4.50561,-2.42847 23.20631,-13.89429 23.71587,-14.54072 0.18369,-0.23306 1.00103,-0.75517 1.81642,-1.16065 1.74923,-0.86979 26.26919,-18.18199 27.2433,-19.235 0.36741,-0.39716 2.17139,-1.82755 4.00854,-3.17862 1.83709,-1.3511 3.79345,-2.91261 4.34754,-3.47007 0.55409,-0.55747 3.56006,-3.05512 6.68021,-5.55057 12.22472,-9.77706 40.20161,-36.8713 48.7624,-47.22399 0.91855,-1.11083 3.93097,-4.68267 6.69417,-7.9375 4.95284,-5.83397 12.05972,-14.63423 14.01516,-17.35449 0.55115,-0.76671 2.49071,-3.47556 4.30982,-6.01979 1.81913,-2.54423 3.48901,-4.76782 3.71088,-4.9413 0.67898,-0.53113 8.57135,-12.29796 13.99036,-20.85816 23.22365,-36.68578 41.79953,-80.21266 51.81648,-121.41585 1.41001,-5.79998 4.23346,-18.25107 4.64881,-20.50107 0.20768,-1.12466 1.48984,-8.35191 2.35128,-13.25345 0.94384,-5.37083 1.85643,-12.27349 2.62723,-19.87424 0.3871,-3.81711 1.05851,-9.92147 1.4919,-13.56507 1.08884,-9.15438 1.48905,-55.14539 0.56275,-64.66995 -0.40501,-4.16412 -1.01254,-10.55243 -1.3503,-14.19603 -2.42607,-26.17179 -8.02706,-53.66973 -16.12822,-79.18122 -1.10191,-3.47008 -2.45366,-7.72846 -3.00395,-9.4635 -2.72804,-8.60182 -10.38234,-28.03607 -13.98519,-35.50843 -0.88337,-1.83208 -1.60611,-3.45618 -1.60611,-3.60908 0,-1.79163 -18.1847,-35.85468 -22.76501,-42.64288 -1.07417,-1.59192 -1.95286,-3.10228 -1.95286,-3.35638 0,-0.25412 -0.90174,-1.70015 -2.00401,-3.21324 -1.10229,-1.51308 -2.00453,-2.92445 -2.00453,-3.13624 0,-0.21179 -0.5534,-1.15423 -1.2299,-2.09445 -0.67649,-0.94023 -3.89616,-5.54215 -7.15512,-10.22677 -6.05346,-8.70175 -13.58701,-18.99239 -14.31902,-19.55901 -0.22416,-0.17352 -1.12556,-1.30934 -2.00298,-2.52388 -0.87745,-1.21452 -2.36638,-3.09556 -3.30832,-4.1801 -0.94201,-1.08454 -3.21582,-3.77954 -5.05292,-5.9893 -3.83002,-4.60685 -13.67411,-15.85857 -14.28647,-16.32924 -0.22576,-0.17352 -2.49997,-2.58692 -5.05395,-5.36298 -7.24566,-7.87586 -22.58321,-22.44733 -31.76499,-30.17852 -4.59283,-3.86723 -8.50107,-7.18402 -8.68474,-7.37061 -1.66148,-1.68758 -23.61645,-18.37203 -27.39006,-20.81475 -1.28599,-0.83244 -2.4885,-1.67829 -2.67219,-1.87998 -1.16343,-1.2772 -17.68308,-11.98246 -29.39407,-19.04845 -15.28128,-9.22017 -47.73853,-25.553252 -61.12599,-30.759367 -2.93943,-1.143058 -6.54688,-2.589215 -8.01656,-3.213758 -1.46974,-0.624544 -5.0772,-2.020813 -8.01657,-3.103169 -2.93942,-1.082356 -5.94585,-2.225523 -6.68073,-2.539897 C 647.52743,82.102355 630.30277,76.689026 613.61629,71.917574 605.5906,69.622647 588.07406,65.72344 575.538,63.441606 555.44728,59.784629 548.15488,58.832215 523.09624,56.593445 517.11628,56.058752 503.7557,55.793978 490.30341,55.796594 Z m -0.19844,16.098242 h 5.2e-4 c 12.34957,0.0039 24.67204,0.21286 29.61007,0.624768 20.06005,1.673313 23.33214,1.979693 26.76116,2.50269 2.02082,0.30824 5.92904,0.869551 8.68474,1.247469 19.94342,2.735047 41.50721,7.555001 67.80672,15.156698 35.80018,10.347839 76.4803,28.952319 112.90008,51.633019 7.29287,4.54167 31.98884,21.54068 33.06827,22.76192 0.18372,0.20784 1.83704,1.5045 3.67419,2.88148 10.46051,7.84042 30.60319,25.45484 40.34948,35.28519 12.51597,12.62395 13.75224,13.90223 17.45164,18.04799 2.01271,2.25557 3.95993,4.41863 4.32739,4.80642 0.75169,0.79342 5.48431,6.37693 9.82989,11.59775 6.92557,8.32044 17.85467,22.95904 24.96592,33.4393 2.44029,3.59639 8.96121,13.90486 8.96121,14.16606 0,0.13264 1.30294,2.32291 2.89543,4.8674 4.00233,6.39476 15.25814,27.63702 18.76785,35.41903 5.13987,11.39656 7.83466,17.6889 9.50898,22.20485 0.90055,2.42908 1.90986,4.9847 2.24327,5.67872 0.69267,1.44176 4.47447,12.36771 6.55102,18.92753 4.95938,15.66684 9.90974,35.85125 12.14706,49.52772 0.76633,4.68464 1.66716,9.93714 2.00195,11.67216 0.33475,1.73506 0.92504,6.56186 1.31206,10.72596 0.38696,4.16414 1.00105,10.67258 1.36426,14.4632 0.85817,8.93933 0.85696,55.2494 0,64.68442 -1.56107,17.18791 -2.73004,26.96296 -4.11551,34.41909 -0.38684,2.08208 -0.80166,4.49547 -0.92191,5.36298 -1.2338,8.90005 -5.57379,27.72394 -9.30951,40.37945 -0.97306,3.29656 -2.21829,7.55492 -2.76727,9.4635 -2.36164,8.21035 -9.04111,25.98335 -15.05283,40.05182 -5.66596,13.25939 -20.96481,42.46094 -26.88621,51.31987 -0.96001,1.43617 -1.74512,2.72033 -1.74512,2.85357 0,0.82971 -15.81028,23.76372 -20.43854,29.6478 -1.1368,1.44529 -4.28158,5.46736 -6.98872,8.93744 -2.70715,3.47012 -5.83573,7.32832 -6.95203,8.57415 -1.11625,1.24579 -3.98132,4.51108 -6.36706,7.25589 -18.63636,21.44115 -45.42393,45.99068 -68.47954,62.75896 -26.38072,19.18664 -47.97559,32.11163 -75.59693,45.24582 -8.71335,4.14331 -27.19901,12.12949 -28.07581,12.12949 -0.20653,0 -2.0663,0.69108 -4.13308,1.53531 -12.67209,5.17623 -35.53034,12.48204 -52.52548,16.78812 -28.01072,7.09716 -46.72528,10.1287 -81.502,13.20229 h -0.002 c -7.34949,0.64951 -49.81412,1.35298 -56.11596,0.92966 -18.22629,-1.22439 -23.68419,-1.72402 -38.41264,-3.51761 -5.13795,-0.62566 -17.83991,-2.57088 -22.04568,-3.37602 -0.91856,-0.17583 -2.72203,-0.48175 -4.00803,-0.68006 -4.63955,-0.71543 -14.38131,-2.92249 -25.28838,-5.72834 -20.85924,-5.36608 -17.53824,-4.39037 -36.96157,-10.85308 -16.2737,-5.41469 -47.04704,-18.69409 -61.93575,-26.72654 -3.084,-1.6638 -5.68978,-3.02513 -5.79034,-3.02513 -0.32672,0 -9.84796,-5.39775 -14.9903,-8.49819 -17.18484,-10.36103 -29.08107,-18.26242 -40.3531,-26.8025 -4.37393,-3.31383 -9.65592,-7.3025 -11.73778,-8.86406 -14.68246,-11.01284 -43.71024,-38.4193 -56.8017,-53.62877 -1.64277,-1.90859 -3.17175,-3.61233 -3.39721,-3.78581 -0.22546,-0.17352 -1.67905,-1.87676 -3.23029,-3.7853 -1.55122,-1.90859 -4.07634,-4.99363 -5.61155,-6.8554 -1.53519,-1.86184 -3.24243,-4.00385 -3.79356,-4.76043 -0.55114,-0.75656 -2.36543,-3.06625 -4.0318,-5.1325 -1.66634,-2.06626 -3.54554,-4.46652 -4.17597,-5.33404 -1.65311,-2.27487 -8.22817,-11.61893 -11.54297,-16.40417 -3.06409,-4.42327 -12.98318,-20.14783 -12.98318,-20.58169 0,-0.14522 -0.778948,-1.42927 -1.730648,-2.85306 -0.95169,-1.4238 -4.525474,-7.87693 -7.941634,-14.34072 -6.206734,-11.74377 -7.8715,-15.08464 -11.35848,-22.79344 -1.02027,-2.25556 -2.417659,-5.29215 -3.105236,-6.74791 -0.687578,-1.45577 -1.250053,-2.8324 -1.250053,-3.05925 0,-0.22684 -0.439675,-1.30736 -0.977202,-2.40088 -1.050642,-2.13721 -4.607127,-11.11152 -6.038391,-15.23732 -0.481536,-1.38802 -1.543904,-4.22711 -2.361096,-6.30917 -0.817182,-2.08204 -1.718334,-4.6377 -2.002462,-5.67873 -0.284149,-1.04104 -1.71667,-5.72557 -3.183268,-10.41021 -2.429741,-7.76109 -5.889505,-20.58655 -7.488432,-27.76058 -2.690045,-12.06965 -3.26351,-14.88691 -3.698999,-18.16479 -0.105573,-0.79469 -0.538984,-3.4915 -0.962732,-5.99343 -1.865746,-11.01587 -2.408354,-15.50637 -4.023527,-33.28944 -0.85617,-9.42657 -0.85617,-47.29038 0,-56.71695 1.117117,-12.29942 2.047587,-20.99213 2.671155,-24.95507 0.327625,-2.08204 0.934123,-6.05647 1.347721,-8.83253 0.413597,-2.77609 1.016511,-6.1831 1.33997,-7.57112 0.32344,-1.38807 0.765134,-3.51751 0.981336,-4.73201 1.366345,-7.67623 4.648247,-21.35997 7.339087,-30.6002 0.606336,-2.08206 1.210374,-4.2471 1.342553,-4.81107 0.652183,-2.78167 7.156206,-22.16354 8.336442,-24.84241 0.305769,-0.69401 1.082454,-2.68121 1.725476,-4.41627 1.739437,-4.69353 6.94066,-17.29417 8.355046,-20.24063 0.67972,-1.41599 1.839474,-4.02091 2.577104,-5.78827 0.737598,-1.76737 5.116311,-10.26192 9.730672,-18.87689 7.441377,-13.89301 11.750568,-21.26069 19.240168,-32.8967 1.1869,-1.84398 2.45878,-3.83204 2.82619,-4.41833 5.12454,-8.17706 21.64207,-29.77551 31.50505,-41.19594 14.86322,-17.2103 36.77887,-38.93962 50.99844,-50.56435 3.85797,-3.15397 7.3153,-6.0532 7.68273,-6.44302 0.92006,-0.97618 16.12511,-12.46534 23.04614,-17.41393 5.77551,-4.12952 7.66345,-5.40637 15.3665,-10.39419 2.38826,-1.54642 4.94388,-3.20487 5.67873,-3.68505 0.73486,-0.48018 4.3423,-2.70045 8.01656,-4.93406 6.01053,-3.65383 10.03837,-5.9306 23.46627,-13.26379 6.70661,-3.6626 29.98254,-14.46847 39.66425,-18.41438 16.87197,-6.876484 35.73485,-13.314637 51.02427,-17.415479 5.18859,-1.391642 10.93677,-2.955261 12.7739,-3.474206 5.0327,-1.421565 25.86633,-5.78251 33.06826,-6.922059 18.08533,-2.861634 24.84463,-3.648853 46.13104,-5.373315 5.04534,-0.408688 17.42173,-0.610099 29.77131,-0.606165 z m 4.12895,26.245944 c -13.76407,-0.06678 -27.48261,0.181021 -33.5995,0.780314 -25.13785,2.462856 -49.59615,6.368236 -66.47088,10.613826 -33.6165,8.45775 -55.77131,16.4059 -85.84386,30.79605 -19.34409,9.25641 -25.27808,12.54149 -45.4272,25.15144 -8.52168,5.33314 -15.14257,9.93129 -29.44213,20.44733 -13.81396,10.15891 -46.34287,40.05751 -56.44358,51.87952 -1.63066,1.90858 -3.15107,3.61233 -3.37861,3.78581 -0.47772,0.36428 -7.45731,8.63213 -12.02252,14.24151 -2.84579,3.49671 -13.07968,16.93824 -14.61616,19.19728 -0.35402,0.52052 -1.94976,2.81041 -3.54552,5.08806 -12.41923,17.72605 -27.52687,44.69199 -35.32549,63.05248 -4.12138,9.70311 -8.558826,20.79639 -8.897136,22.24257 -0.14237,0.60857 -0.431091,1.36985 -0.641821,1.69189 -0.39062,0.59692 -4.066403,11.43321 -5.043103,14.86731 -0.29607,1.04102 -1.435224,4.87369 -2.531112,8.51731 -2.852075,9.48262 -6.392152,24.13642 -7.850167,32.4931 -0.181619,1.04104 -0.608983,3.31219 -0.949296,5.04724 -0.860811,4.38865 -1.822701,10.92193 -2.647384,17.98133 -0.385095,3.2966 -1.003262,8.56738 -1.374076,11.71247 -1.13291,9.60876 -1.55058,40.55464 -0.731738,54.21943 1.377461,22.98743 3.303985,37.14706 7.725626,56.78361 3.254231,14.45204 3.215354,14.29735 5.331975,21.4514 0.616012,2.08206 1.190891,4.06929 1.277441,4.41627 0.08653,0.347 0.482997,1.62456 0.881083,2.8391 0.39809,1.21456 1.388066,4.33809 2.199866,6.94067 0.8118,2.60257 1.879188,5.86734 2.371948,7.25537 2.17439,6.12504 5.857224,15.93369 6.633184,17.6661 0.4663,1.04103 1.69333,3.88009 2.72645,6.30918 12.05656,28.34766 26.76824,53.68998 47.61415,82.02031 2.83416,3.85172 10.21826,13.13045 10.79521,13.56507 0.23031,0.17349 1.30461,1.45102 2.38745,2.8391 2.00063,2.56448 11.62252,13.61945 12.35583,14.19603 0.22066,0.17349 3.56994,3.72221 7.44296,7.88634 14.02708,15.08139 35.04042,33.23244 55.99916,48.37173 17.02498,12.29783 34.4153,22.95335 53.09961,32.53445 12.68751,6.506 31.56985,14.96229 41.41917,18.54977 1.83713,0.66915 3.94134,1.45782 4.6762,1.75235 7.18222,2.87853 26.25009,9.02492 36.40863,11.73623 0.18373,0.0491 1.53633,0.31783 3.00602,0.59686 1.4697,0.279 3.12306,0.72322 3.6742,0.98702 1.06614,0.51029 26.78803,6.03643 30.73042,6.60219 1.28599,0.18457 3.69097,0.59565 5.34438,0.91363 9.23377,1.77585 33.86578,4.27781 46.4292,4.716 11.33942,0.39548 58.78683,-0.20823 64.13252,-0.81597 2.93944,-0.33412 8.65113,-0.93136 12.69277,-1.32706 4.04171,-0.39573 9.00226,-0.97389 11.0231,-1.28519 2.02087,-0.31136 5.77842,-0.87779 8.35039,-1.25884 6.38154,-0.94551 22.49385,-4.16083 30.06225,-5.99911 15.30298,-3.71697 31.32859,-8.32865 39.41465,-11.34195 2.20454,-0.82156 7.16513,-2.6191 11.0231,-3.9951 3.85797,-1.376 8.96812,-3.35346 11.35641,-4.39405 2.38829,-1.04056 7.79972,-3.3707 12.02511,-5.17798 25.67807,-10.98313 57.67792,-29.89366 82.16966,-48.55827 32.46935,-24.74422 62.86981,-55.62957 84.84237,-86.19681 6.19535,-8.61867 13.36094,-19.08013 13.36094,-19.5063 0,-0.18208 1.00667,-1.81743 2.23707,-3.63389 5.3798,-7.94215 17.31496,-29.66434 22.57588,-41.08845 1.13626,-2.46744 2.60249,-5.62189 3.2582,-7.00991 4.13619,-8.75582 13.64306,-34.00125 16.39383,-43.53377 5.42272,-18.7919 8.17885,-30.42066 10.61744,-44.79572 0.58867,-3.47009 1.38689,-8.15463 1.77354,-10.41021 1.82418,-10.64064 3.90834,-37.92796 3.92534,-51.40824 0.0337,-25.67183 -3.8422,-57.48212 -10.37921,-85.18756 -0.57314,-2.42905 -1.1797,-5.04809 -1.34824,-5.8198 -0.16856,-0.77172 -0.59537,-2.12015 -0.94826,-2.99672 -0.35195,-0.87659 -0.50606,-1.5937 -0.34055,-1.5937 0.16554,0 -0.0209,-0.78103 -0.41444,-1.73529 -0.39362,-0.95429 -1.14702,-3.2963 -1.67432,-5.20485 -2.81752,-10.19846 -9.99233,-30.42189 -13.35216,-37.63543 -0.50931,-1.09347 -0.92604,-2.15013 -0.92604,-2.34766 0,-0.19753 -0.71359,-1.85814 -1.58543,-3.69022 -0.87182,-1.83209 -2.72288,-5.88618 -4.11396,-9.00927 -8.74864,-19.64148 -27.77769,-51.09188 -42.02844,-69.46294 -7.75964,-10.00317 -15.50251,-19.67864 -17.62219,-22.02139 -0.62794,-0.69402 -2.69445,-3.02759 -4.59248,-5.18573 -11.47886,-13.05228 -23.71648,-24.73259 -45.575,-43.49967 -4.03469,-3.46409 -21.53875,-16.48279 -25.30905,-18.82366 -0.5589,-0.34702 -1.50651,-1.05714 -2.10529,-1.57768 -4.48241,-3.89647 -29.69537,-19.60226 -38.20439,-23.79855 -2.80821,-1.38488 -6.05199,-3.15422 -7.20783,-3.93154 -3.56992,-2.40076 -34.00075,-16.64138 -42.46614,-19.87269 -4.40911,-1.683 -8.91881,-3.41096 -10.02109,-3.84008 -2.18737,-0.85159 -6.76671,-2.46096 -14.0286,-4.93045 -6.12135,-2.08164 -24.85935,-7.36864 -33.73645,-9.5188 -20.17164,-4.88583 -34.62336,-7.22211 -63.13051,-10.206608 -6.29967,-0.659531 -20.10932,-1.041165 -33.87338,-1.107942 z m 12.6633,7.80521 c 6.13158,0 22.58307,1.06296 30.22297,1.95285 3.12,0.36341 7.92995,0.91344 10.68875,1.22215 7.2779,0.81439 10.34313,1.23139 16.70699,2.27479 3.12308,0.51203 7.18142,1.17621 9.01857,1.47588 1.83708,0.29967 5.5947,1.00891 8.3504,1.57613 2.75569,0.56726 5.76213,1.17604 6.68072,1.35238 0.91857,0.17638 3.77442,0.85174 6.34639,1.5012 2.57201,0.64947 7.68269,1.93393 11.35693,2.85409 9.89634,2.4784 31.7235,9.45938 37.5114,11.9972 1.1578,0.50767 2.30456,0.92294 2.54817,0.92294 0.2436,0 2.08565,0.70964 4.0938,1.57716 2.00818,0.86752 3.77474,1.57768 3.92586,1.57768 0.15106,0 2.77298,1.10504 5.826,2.45567 3.05301,1.35062 8.23335,3.63153 11.51196,5.06894 13.36473,5.85942 43.91131,23.02314 49.31947,27.712 1.10654,0.95938 1.8371,2.24967 1.8371,3.24425 0,1.40796 -2.47152,5.8481 -4.67723,8.40207 -1.00915,1.16849 -4.73882,6.05656 -7.68326,10.07019 -1.46873,2.0021 -4.10417,5.55135 -5.85649,7.88685 -1.75227,2.33554 -4.82541,6.51742 -6.82955,9.29349 -2.00413,2.77608 -5.01996,6.89324 -6.7014,9.1488 -1.68136,2.25556 -5.97282,8.20728 -9.53689,13.22607 -3.56411,5.01878 -7.56121,10.20038 -8.88214,11.51454 -1.321,1.31415 -2.83781,2.389 -3.37086,2.389 -0.53309,0 -3.21024,-1.32114 -5.94899,-2.93574 -27.51352,-16.22008 -46.42657,-25.01242 -70.11406,-32.59439 -6.58567,-2.10796 -21.67755,-6.2128 -25.38605,-6.90501 -0.91854,-0.17145 -3.92451,-0.76275 -6.68021,-1.31413 -7.94012,-1.58874 -20.65143,-3.60795 -25.03103,-3.97598 -2.20822,-0.18557 -4.2206,-0.45711 -4.47157,-0.60358 -0.25101,-0.14652 -7.61941,-0.70734 -16.37419,-1.24592 -16.95575,-1.04304 -18.38387,-1.36846 -19.63601,-4.4788 -0.40703,-1.01096 -0.58433,-16.72864 -0.47129,-41.76592 0.17627,-39.01381 0.2188,-40.19321 1.51722,-41.85378 1.79432,-2.29471 4.24956,-3.02307 10.18852,-3.02307 z m -25.26977,0.0744 c 2.04264,0.0733 3.52792,0.24544 4.31808,0.52917 3.77538,1.35561 3.72283,0.71563 3.73983,45.12903 l 0.015,40.79544 -1.85415,1.75131 c -2.06067,1.94616 -3.75033,2.19783 -19.52904,2.9068 -7.58613,0.34084 -13.42043,0.93227 -28.05823,2.84531 -2.7557,0.36016 -6.36315,0.90674 -8.01657,1.21439 -1.65341,0.30765 -4.96013,0.90513 -7.34839,1.32809 -16.81584,2.97814 -40.17397,9.96494 -55.96868,16.7411 -1.93988,0.83223 -3.63926,1.5136 -3.77599,1.5136 -0.80165,0 -13.38478,5.95042 -21.05143,9.95495 -9.11134,4.75916 -14.31678,7.73735 -22.00486,12.59044 h 10e-4 c -6.9821,4.40745 -8.21721,3.93273 -15.15773,-5.826 -1.97438,-2.77608 -4.54974,-6.32531 -5.72264,-7.88686 -1.17289,-1.56154 -3.36029,-4.54973 -4.86121,-6.64042 -1.50093,-2.09068 -8.29057,-11.25294 -15.08796,-20.36103 -6.79737,-9.10809 -13.93723,-18.68588 -15.86622,-21.28345 -1.92897,-2.59757 -3.50728,-5.37446 -3.50728,-6.1712 0,-1.92263 2.89155,-4.38262 11.10217,-9.44646 15.23633,-9.39687 37.67719,-20.91007 54.3667,-27.89235 3.12311,-1.3066 6.93922,-2.9071 8.48062,-3.55637 1.5414,-0.64926 2.99942,-1.18029 3.2396,-1.18029 0.24022,0 1.38416,-0.41527 2.54196,-0.92294 3.52703,-1.54649 25.47905,-8.91337 28.15849,-9.44956 0.36743,-0.0735 2.77239,-0.73161 5.34438,-1.46296 4.92843,-1.40142 18.64525,-4.77632 22.04568,-5.42395 1.10229,-0.20992 4.10875,-0.82625 6.68073,-1.36995 21.85721,-4.62054 63.47767,-8.93907 77.77613,-8.42584 z m 119.97821,22.23275 c -2.77115,0.20141 -5.46056,0.68117 -6.86005,1.35134 -6.74083,3.22794 -13.37372,12.01017 -14.04359,18.59422 -0.49573,4.87278 0.10689,6.11166 3.84421,7.90029 5.40042,2.58453 8.61694,1.96837 10.36681,-1.98696 0.55054,-1.2444 1.00097,-2.74013 1.00097,-3.32383 0,-1.90662 3.85923,-6.92774 5.65134,-7.35252 2.41267,-0.57192 4.8787,0.16125 5.35988,1.59318 0.56358,1.67696 -1.89516,6.02459 -4.74235,8.38554 -3.05386,2.53235 -3.89038,4.24948 -4.84415,9.94564 -0.43581,2.60258 -1.10495,6.29353 -1.48724,8.20209 -0.38237,1.90854 -0.59964,5.4501 -0.48318,7.87032 0.18713,3.88721 0.39456,4.4862 1.78077,5.13664 2.0079,0.94216 6.86404,0.39325 7.95042,-0.89866 0.45926,-0.54619 0.84556,-2.28706 0.85886,-3.86901 0.058,-7.00941 3.81456,-15.49628 8.94416,-20.20652 4.09115,-3.75673 5.72936,-7.92921 5.72936,-14.59498 0,-4.21554 -0.30059,-5.64321 -1.79523,-8.52609 -2.02036,-3.89686 -5.68054,-6.82417 -9.88106,-7.90236 -1.72593,-0.44301 -4.57879,-0.51974 -7.34993,-0.31833 z m 1.30328,2.30942 c 2.31679,-0.002 4.58269,0.39516 6.22546,1.19321 4.92903,2.3945 8.82478,8.05027 8.82478,12.80904 -6.3e-4,3.34552 -3.03343,9.56234 -5.91023,12.11502 -3.93868,3.49487 -7.83325,13.10042 -8.50439,20.97598 -0.19884,2.33346 -0.51153,4.47182 -0.69505,4.75268 -0.41404,0.63281 -2.34321,0.64858 -3.32848,0.0274 -2.46606,-1.55512 -2.511,-4.29431 -0.231,-14.0286 0.36575,-1.56156 0.81262,-3.61265 0.99271,-4.55786 0.5604,-2.94062 1.57696,-4.93144 3.90622,-7.64811 3.1965,-3.72809 4.27031,-6.00112 4.49998,-9.52862 0.17702,-2.71837 -0.011,-3.23597 -1.57354,-4.33772 -4.07698,-2.87475 -9.16687,-0.73549 -12.30003,5.17023 -3.70728,6.98769 -6.15545,8.43037 -9.28677,5.47305 -4.63061,-4.37332 2.02182,-17.37712 10.84998,-21.20956 1.84621,-0.80145 4.21356,-1.20385 6.53036,-1.20613 z M 441.37203,135.801 c -2.27144,0.4189 -5.00388,2.18796 -8.8682,5.50974 -14.76646,12.6933 -20.17926,15.3178 -32.98145,15.99179 -4.39066,0.23115 -6.25726,0.65346 -8.95966,2.02675 -8.1266,4.12967 -9.87391,4.797 -14.21567,5.43171 -5.17509,0.75651 -17.66812,-0.0192 -18.05109,-1.12086 -0.12737,-0.36641 0.76654,-1.1159 1.98696,-1.66553 1.22044,-0.54964 5.1221,-3.29127 8.67027,-6.09265 8.54847,-6.74926 12.06036,-8.40656 17.7891,-8.40156 2.95839,0.003 5.46195,0.43044 7.58816,1.29502 1.74527,0.70966 3.17345,1.14432 3.17345,0.96583 0,-1.06229 -2.2707,-4.13757 -4.29379,-5.81515 -4.27187,-3.54234 -7.73306,-3.25315 -15.40526,1.28674 -17.83931,10.55608 -26.90476,16.73725 -37.58582,25.62738 -5.65993,4.71093 -6.03863,6.10992 -2.83962,10.50117 1.1023,1.51308 2.00453,2.95821 2.00453,3.21117 0,0.25295 1.21549,1.98015 2.70112,3.83852 3.10522,3.8843 6.96924,6.52191 10.52546,7.18458 11.1873,2.08471 20.17551,-6.15238 20.17551,-18.48931 0,-5.9038 1.23345,-8.02334 4.6762,-8.03414 1.88436,-0.006 3.75905,2.22591 5.95003,7.08433 0.74331,1.6483 1.66279,2.99671 2.04328,2.99671 0.38597,0 0.69143,-1.41295 0.69143,-3.19619 0,-1.75786 0.30733,-3.7379 0.68265,-4.40024 0.71722,-1.26567 8.57352,-3.81998 16.68632,-5.425 6.27677,-1.24179 7.70357,-1.1184 9.30434,0.80357 3.62819,4.3562 -0.59294,13.44243 -7.71374,16.60364 -3.7708,1.67397 -6.72457,1.76308 -11.8277,0.35605 -2.13993,-0.59003 -4.02271,-0.94785 -4.18424,-0.7953 -0.79305,0.74899 2.78354,3.6748 5.27203,4.31292 3.91289,1.00336 11.02305,0.33942 14.22187,-1.32809 5.81369,-3.03064 7.63954,-6.35356 8.31473,-15.13344 0.2802,-3.6436 0.9734,-7.82195 1.54048,-9.28522 1.4734,-3.80192 5.62444,-8.84951 10.54819,-12.82558 2.3388,-1.88868 4.4026,-3.59233 4.58629,-3.78633 0.81625,-0.86185 5.18301,-3.0016 6.91172,-3.38687 2.21561,-0.49379 7.40819,1.60059 8.65942,3.49281 0.86228,1.304 2.15059,1.54703 2.81533,0.53123 0.56288,-0.86014 -3.28821,-6.48652 -5.81308,-8.49302 -0.87138,-0.69248 -1.7309,-1.14961 -2.63705,-1.35341 -0.67961,-0.15284 -1.38536,-0.16301 -2.1425,-0.0238 z m -33.53491,24.20783 c 2.85486,0.43754 3.13342,1.45831 0.39791,1.45831 -1.89656,0 -8.84786,1.47364 -15.74167,3.33674 -1.83714,0.49649 -3.8663,1.11466 -4.50929,1.37408 -0.70389,0.28399 -1.16892,0.19811 -1.16892,-0.21601 0,-0.82382 5.28479,-3.43146 9.01857,-4.44985 4.6207,-1.26028 9.55602,-1.87835 12.0034,-1.50327 z m -51.42683,8.58087 c 3.64313,-0.35511 11.69954,0.82599 11.69954,1.71514 0,0.25477 -1.87904,0.66355 -4.17546,0.90796 -7.39334,0.78694 -20.94358,4.40123 -22.84718,6.0942 -0.95892,0.85282 -1.70685,0.67641 -1.3069,-0.30799 1.2026,-2.95977 10.8689,-7.84775 16.63,-8.40931 z m 8.55245,5.67976 c 2.99044,-0.53614 4.48293,1.22753 4.48293,5.29735 0,6.30444 -2.65771,10.11936 -8.48527,12.17858 -7.4373,2.62803 -13.51847,0.66447 -17.07958,-5.51491 -1.70514,-2.95881 -1.73273,-3.15534 -0.65422,-4.62039 2.79825,-3.8012 3.70645,-4.10816 21.73614,-7.34063 z m -110.21033,4.86378 c 1.81579,0 4.44433,2.62174 8.94726,8.92452 2.49536,3.49275 5.13818,7.13521 5.87302,8.09408 1.20624,1.57397 7.84887,10.65205 10.35493,14.15159 1.20371,1.68094 18.79671,25.02864 19.53782,25.92865 3.06908,3.72723 7.54976,9.88425 8.39846,11.5409 0.98459,1.92197 0.97599,2.22706 -0.11059,4.10052 -0.64573,1.11336 -2.58587,3.01482 -4.31188,4.22507 -16.55095,11.60543 -43.83934,36.704 -55.57181,51.11264 -1.27151,1.56155 -2.53014,2.98922 -2.79672,3.17242 -1.61166,1.10753 -19.66918,25.82528 -23.33088,31.93603 -7.74969,12.93281 -15.69815,27.96293 -18.30224,34.60926 -0.67979,1.73505 -1.44544,3.43828 -1.70171,3.7853 -0.25629,0.34701 -0.84474,1.76682 -1.30793,3.15485 -0.4632,1.38804 -1.05435,2.8073 -1.31361,3.15432 -0.25926,0.34702 -1.00057,2.26681 -1.64745,4.26589 -0.66106,2.04286 -1.79847,4.04634 -2.59674,4.5744 -0.78114,0.51674 -1.57868,0.92376 -1.7725,0.90486 -0.19382,-0.019 -14.78224,-4.54251 -32.41869,-10.0521 -17.63646,-5.50958 -36.42533,-11.33776 -41.75301,-12.95115 -5.32768,-1.61338 -10.36279,-3.52728 -11.1895,-4.25349 -2.5232,-2.21647 -2.19713,-4.08234 2.95176,-16.8739 0.90791,-2.25556 2.09182,-5.01764 2.63085,-6.13813 0.53899,-1.12048 1.39275,-3.10769 1.89704,-4.41627 4.21416,-10.93507 15.75654,-32.11669 27.7704,-50.96071 2.2004,-3.45142 14.8514,-21.11846 17.74724,-24.78402 18.11604,-22.93129 39.04926,-44.63454 60.14413,-62.35692 20.80713,-17.48066 30.85056,-24.84861 33.87235,-24.84861 z m 476.08515,0.0605 c 3.76958,0.53706 9.46382,3.83002 14.72778,8.77259 5.0562,4.74751 14.78447,12.83388 20.59668,17.12041 7.78398,5.7407 40.18937,38.387 47.19867,47.54955 1.06184,1.38804 2.26059,2.80732 2.66392,3.15433 0.40333,0.34702 1.62104,1.7668 2.70629,3.15484 1.08526,1.38804 2.12905,2.66563 2.31924,2.83911 0.89389,0.81545 9.10577,11.87607 13.61829,18.34255 2.76723,3.9655 5.27143,7.49384 5.56504,7.84086 0.79233,0.93645 7.34858,11.52668 12.69483,20.50521 4.03697,6.77985 12.20856,22.19972 12.20856,23.03787 0,0.15327 1.0178,2.34346 2.26187,4.86689 2.19153,4.44515 3.70654,7.95853 7.41867,17.2067 0.97496,2.42905 2.03351,4.98418 2.35231,5.67821 0.31882,0.694 1.6231,4.13287 2.89854,7.64191 3.38254,9.30638 4.09413,8.58795 -13.59504,13.73197 -5.32765,1.54928 -12.84333,3.70928 -16.70131,4.80023 -3.85799,1.09098 -7.76615,2.2328 -8.68474,2.53731 -0.91855,0.30452 -5.27764,1.5832 -9.68674,2.84169 -4.40913,1.25852 -8.76769,2.53187 -9.68624,2.8298 -0.9186,0.29796 -5.27761,1.59163 -9.68674,2.87424 -4.40911,1.2826 -9.69039,2.86443 -11.73572,3.51555 -2.04528,0.65111 -4.82996,1.18391 -6.18877,1.18391 -2.06698,0 -2.68941,-0.33495 -3.81062,-2.05052 -0.73708,-1.12778 -1.52974,-2.76017 -1.76113,-3.62769 -0.23137,-0.86752 -1.4396,-4.13281 -2.68511,-7.25589 -7.08028,-17.75365 -15.98353,-34.71547 -27.8014,-52.96731 -6.36255,-9.82648 -17.16421,-23.5959 -27.45466,-34.99683 -8.86968,-9.82678 -27.71147,-27.44528 -37.1414,-34.73069 -2.38829,-1.84513 -4.49251,-3.54229 -4.6762,-3.77135 -0.18366,-0.22906 -1.53627,-1.23517 -3.00602,-2.23552 -4.13006,-2.81112 -9.68719,-8.05804 -9.67589,-9.13433 0.016,-1.40425 2.04631,-4.42738 9.97148,-14.84819 1.84732,-2.42906 4.73122,-6.26174 6.40839,-8.51731 1.67717,-2.25556 4.54046,-6.08874 6.36292,-8.51782 1.82251,-2.42906 4.4503,-5.9778 5.83944,-7.88634 4.09039,-5.61997 11.13239,-15.23663 13.39867,-18.29708 1.15636,-1.56153 3.65458,-4.96853 5.55159,-7.57111 1.89703,-2.60257 3.77538,-4.9406 4.17391,-5.19555 0.74164,-0.47442 1.78411,-0.60122 3.04064,-0.4222 z m -131.22816,9.17205 c -1.8556,-0.16576 -3.42664,0.69414 -5.25756,2.74919 -2.98718,3.35276 -2.17127,7.55681 1.7818,9.18083 2.85395,1.17246 3.75471,1.12699 6.26008,-0.31574 4.59225,-2.64447 4.11428,-9.16831 -0.8139,-11.11302 -0.70185,-0.27695 -1.35189,-0.446 -1.97042,-0.50126 z m 0.15089,1.65985 c 0.56719,0.0473 1.10871,0.38438 2.10013,1.0511 3.08704,2.07603 2.50446,6.65097 -1.04128,8.17676 -0.89535,0.38526 -1.6886,0.68971 -1.7632,0.67541 -0.0745,-0.0136 -1.10223,-0.4213 -2.28358,-0.9064 -4.01499,-1.6487 -3.5992,-6.35758 0.7338,-8.30906 1.09414,-0.49275 1.68694,-0.73512 2.25413,-0.68781 z m -107.01156,12.47107 c 11.04497,-0.005 21.98663,0.2022 25.95966,0.62426 10.86496,1.15418 17.35366,1.94779 20.75481,2.53782 1.83709,0.3187 4.39219,0.7314 5.6782,0.91726 7.86416,1.13652 29.83835,6.49153 40.08283,9.76788 27.07263,8.65829 50.44482,19.44511 73.15109,33.76176 7.0346,4.43541 20.77924,13.80034 21.71185,14.79342 0.18374,0.1956 1.83709,1.48193 3.67419,2.85822 1.83715,1.37627 3.49051,2.67888 3.6742,2.89491 0.18366,0.21603 2.58869,2.18787 5.34438,4.38216 6.34907,5.05561 23.32433,21.11208 28.01534,26.49865 1.96425,2.25556 4.2394,4.73969 5.05551,5.52007 2.39484,2.29004 15.04578,18.20825 20.18274,25.39535 11.053,15.46433 23.27619,37.22162 30.30616,53.94451 3.96313,9.42742 9.39231,24.6757 11.00708,30.91491 0.0898,0.34705 0.74711,2.7604 1.46038,5.36298 1.52841,5.5767 2.44651,9.53022 3.51658,15.14223 0.43004,2.25552 1.18797,6.08873 1.68465,8.51783 0.86944,4.25217 1.56132,9.46424 2.98742,22.50508 0.85899,7.84595 0.86007,34.51829 0.008,42.92865 -1.15344,11.34112 -2.07209,18.33362 -3.0918,23.52673 -2.6394,13.44206 -3.32802,16.54881 -5.10408,23.02908 -0.71327,2.60257 -1.36088,5.01544 -1.43868,5.36247 -0.16439,0.73266 -0.10612,0.55173 -3.77289,11.67215 -2.89911,8.79239 -8.59473,23.12283 -11.72228,29.49278 -11.11419,22.63614 -18.48673,34.7746 -31.90452,52.52806 -10.9158,14.44305 -18.47916,22.76366 -34.14313,37.56308 -7.35901,6.95284 -15.7845,14.46625 -18.72392,16.69665 -2.93943,2.23036 -5.49504,4.22276 -5.67873,4.42712 -0.18374,0.20434 -1.53073,1.20821 -2.9931,2.23087 -1.46243,1.02273 -3.1152,2.20281 -3.67367,2.62258 -5.36993,4.03637 -23.67648,15.95613 -24.50548,15.95613 -0.1943,0 -1.1735,0.55135 -2.17558,1.22525 -5.1355,3.45361 -23.88772,12.86331 -32.12052,16.11737 -2.38829,0.94398 -5.5443,2.22255 -7.01404,2.84168 -6.16458,2.59676 -16.07613,6.10084 -23.04769,8.14834 -1.28595,0.3777 -4.59373,1.376 -7.34943,2.21795 -2.7557,0.842 -7.86585,2.14667 -11.35641,2.89957 -3.49058,0.75289 -7.24813,1.62336 -8.35039,1.93425 -1.1023,0.31084 -6.06284,1.24667 -11.0231,2.07997 -8.48628,1.42568 -13.22343,2.00788 -28.8401,3.54242 l -5.2e-4,-5.1e-4 c -7.62121,0.7489 -46.63462,0.70146 -54.33208,-0.0667 -12.14894,-1.21166 -18.25278,-1.90678 -22.04517,-2.51147 -8.98304,-1.43232 -12.19747,-2.00645 -15.6993,-2.80345 -2.02084,-0.45996 -5.17745,-1.17467 -7.01456,-1.58801 -40.79699,-9.17885 -81.84311,-28.46951 -116.57428,-54.78736 -15.49886,-11.7444 -35.68275,-30.80751 -48.17329,-45.49851 -3.75722,-4.41915 -10.85418,-13.36288 -12.25144,-15.43937 -0.69443,-1.03203 -1.53158,-2.16783 -1.86036,-2.52388 -1.68093,-1.82015 -13.87202,-20.08821 -13.87202,-20.78684 0,-0.21484 -0.74461,-1.50445 -1.65468,-2.86598 -1.82439,-2.72944 -9.05318,-16.18641 -12.32793,-22.9495 -4.22022,-8.71573 -12.13654,-28.78981 -14.34692,-36.38072 -1.2193,-4.18726 -5.13692,-18.77979 -5.37952,-20.03754 -0.15117,-0.78375 -0.42725,-1.91905 -0.6134,-2.52336 -0.18605,-0.60427 -0.51553,-2.23449 -0.73226,-3.62252 -0.21672,-1.38802 -0.65017,-3.51744 -0.96324,-4.73201 -0.51924,-2.01447 -0.95844,-4.90729 -2.728,-17.98133 -1.64481,-12.15232 -2.23283,-29.9756 -1.41077,-42.7452 0.95962,-14.90612 2.37466,-26.9116 4.18372,-35.48982 0.36592,-1.73507 0.77678,-3.91888 0.91313,-4.85293 1.3351,-9.15051 10.86923,-39.98984 15.07918,-48.77584 0.33255,-0.694 1.00445,-2.25553 1.49293,-3.47007 1.85709,-4.61728 3.60952,-8.22641 9.27747,-19.10633 11.98891,-23.01336 23.63003,-39.77849 42.59068,-61.33682 6.31562,-7.18091 27.83644,-27.51394 35.81126,-33.83463 13.59954,-10.77868 34.23812,-24.54067 47.38263,-31.59549 7.19065,-3.85929 23.2034,-11.43745 27.72079,-13.11909 2.00974,-0.74815 5.16231,-2.00773 7.00578,-2.7988 6.14639,-2.63757 22.63693,-8.0298 35.41799,-11.5812 4.57915,-1.27237 13.39434,-3.15261 21.3775,-4.55993 2.20456,-0.38864 5.06092,-0.95036 6.3469,-1.2485 2.76247,-0.64041 14.89928,-2.18158 24.57473,-3.12074 4.38664,-0.42575 15.53481,-0.6431 26.57977,-0.64803 z m -0.52503,8.81032 c -17.00564,0.003 -24.52221,0.40825 -37.26801,2.00763 -3.12313,0.3919 -6.27918,0.78763 -7.01404,0.87953 -1.51688,0.18959 -10.86344,1.77503 -16.36748,2.77658 -34.41869,6.26305 -75.74061,22.67575 -105.10366,41.74628 -2.63463,1.71114 -5.99235,3.87555 -7.46207,4.80953 -3.81063,2.4216 -14.2935,10.29131 -21.71186,16.29978 -16.32761,13.22445 -34.06095,31.70918 -46.85244,48.83681 -5.51307,7.38189 -12.60336,17.48759 -12.60336,17.96325 0,0.16997 -1.06925,1.88667 -2.37557,3.81527 -3.49098,5.15405 -14.9198,27.30462 -18.22421,35.32032 -1.57356,3.81712 -3.12244,7.50808 -3.44216,8.20209 -0.93188,2.0229 -3.39144,8.7177 -3.7083,10.09447 -0.15971,0.69403 -0.58149,1.97159 -0.93742,2.8391 -0.72247,1.76086 -4.7211,14.81122 -5.09012,16.61243 -0.1301,0.63502 -0.42954,1.72794 -0.66508,2.42879 -0.23552,0.70085 -0.52395,1.88461 -0.64079,2.63085 -0.11688,0.74621 -0.70776,3.48646 -1.31361,6.08903 -2.0463,8.7906 -3.45216,17.6381 -5.31337,33.43879 -1.64601,13.97369 -0.59741,48.56066 1.92339,63.44108 2.72425,16.08135 3.14113,17.91396 8.02949,35.29914 2.02163,7.18987 8.01286,23.43966 10.70064,29.02252 0.50118,1.04102 1.52272,3.36229 2.27014,5.15834 2.97061,7.13857 13.59271,26.21898 19.81946,35.60196 3.44698,5.19418 9.24075,13.49875 9.63869,13.81518 0.21818,0.17351 1.87823,2.30297 3.68867,4.73201 3.73635,5.01307 7.68522,9.78659 12.24008,14.79703 1.72037,1.89244 4.16641,4.58981 5.43584,5.99395 1.26943,1.40416 6.23001,6.33735 11.0231,10.96264 21.57001,20.81486 48.63847,39.69256 75.51942,52.66758 13.68191,6.6041 26.89185,12.17249 34.73845,14.64356 1.4697,0.46284 4.92652,1.60117 7.68222,2.52956 2.75569,0.92838 5.50028,1.77892 6.09885,1.8898 0.59857,0.11079 2.40255,0.6201 4.00854,1.13172 2.6092,0.8312 9.77713,2.53369 21.62504,5.13664 10.1986,2.24067 25.36248,4.24912 40.08282,5.30923 21.76132,1.56717 59.2352,-0.70731 75.15562,-4.56148 2.02087,-0.48925 5.17695,-1.08935 7.01404,-1.33428 5.25305,-0.70024 22.30994,-4.94853 31.73243,-7.9034 17.85504,-5.59927 39.24325,-14.64232 54.78012,-23.16086 3.12308,-1.71236 6.41603,-3.5183 7.3179,-4.0137 2.59932,-1.42775 20.36991,-12.71823 20.73982,-13.17698 0.18369,-0.2278 2.8894,-2.2296 6.01255,-4.44779 9.27307,-6.58635 17.70543,-13.75257 29.43697,-25.01759 10.81265,-10.38261 14.49477,-14.25784 22.08806,-23.24406 6.77039,-8.01236 18.54494,-24.63602 24.352,-34.38085 3.96424,-6.65242 14.3092,-26.75087 14.3092,-27.80037 0,-0.30904 0.58966,-1.77618 1.31,-3.26027 4.62731,-9.53383 12.34373,-32.38221 15.40061,-45.60135 1.08884,-4.70871 1.36763,-6.0492 2.40192,-11.54555 1.12753,-5.9917 1.19024,-6.40037 2.68459,-17.47696 2.13913,-15.85625 2.32029,-52.91933 0.32246,-65.9319 -0.39956,-2.60258 -1.049,-7.00314 -1.44332,-9.77925 -0.93458,-6.57981 -2.49493,-14.27173 -4.79971,-23.66005 -3.63526,-14.80794 -11.74237,-36.18083 -20.17189,-53.17815 -2.90345,-5.85455 -12.16428,-21.80071 -13.48135,-23.21357 -0.51065,-0.54784 -0.92863,-1.19558 -0.92863,-1.43971 0,-0.44216 -5.95873,-9.26683 -6.66264,-9.86709 -0.20341,-0.17352 -1.56817,-2.01475 -3.03289,-4.09123 -3.02049,-4.28197 -12.8383,-16.71909 -13.95315,-17.67592 -0.40435,-0.347 -2.21705,-2.33471 -4.0287,-4.41678 -5.04536,-5.79843 -26.10801,-25.76827 -32.11277,-30.44672 -2.93944,-2.29017 -5.64516,-4.47959 -6.01255,-4.86534 -0.66398,-0.69709 -13.17455,-9.75806 -16.36696,-11.85406 -15.2742,-10.02852 -34.20709,-20.48019 -46.55013,-25.69714 -4.34274,-1.83553 -9.48271,-4.00794 -11.42256,-4.82761 -1.93991,-0.81966 -3.69862,-1.49035 -3.90777,-1.49035 -0.20916,0 -1.32733,-0.40671 -2.48512,-0.90382 -1.15779,-0.49712 -3.45789,-1.33001 -5.11131,-1.85105 -1.65341,-0.52103 -5.56164,-1.82777 -8.68475,-2.9037 -3.12317,-1.07596 -5.6782,-1.90571 -5.6782,-1.84381 0,0.0619 -1.80398,-0.39114 -4.00854,-1.00718 -2.20455,-0.61603 -4.98536,-1.36679 -6.17947,-1.66811 -1.19412,-0.30133 -3.29834,-0.83601 -4.6762,-1.18804 -9.86975,-2.52165 -31.67949,-6.01197 -46.93047,-7.51066 -3.85797,-0.37911 -15.045,-0.68774 -24.8605,-0.68574 z m -4.8426,4.38216 c 0.0656,-0.16621 0.63091,0.13281 1.48777,0.77463 1.14609,-0.007 1.80921,-0.0815 2.96002,-0.0816 8.88149,-10e-4 17.63193,0.20733 22.05809,0.62684 15.29712,1.44985 25.24778,2.74177 31.58929,4.10052 3.67425,0.78729 8.93504,1.91 11.69075,2.49494 10.82983,2.29881 29.03459,7.84339 41.41918,12.61525 9.23544,3.5585 28.34374,12.34298 35.74046,16.43052 2.93939,1.62436 6.24611,3.45018 7.34838,4.05712 1.10227,0.60697 4.55959,2.71117 7.68274,4.6762 3.12311,1.96502 6.42984,4.04396 7.34839,4.61987 6.92956,4.34463 18.18539,12.74809 29.11398,21.73614 12.07447,9.93047 30.92352,29.13727 37.68453,38.39973 0.88655,1.21454 1.77674,2.35039 1.97817,2.52387 1.13088,0.97417 5.14395,6.34299 10.13892,13.56455 10.84793,15.6836 20.23559,32.60923 26.94512,48.58153 1.74921,4.16413 3.42498,8.13904 3.72432,8.83305 1.67836,3.89166 5.41565,15.58747 7.25744,22.71335 1.16601,4.51112 2.39904,9.19655 2.7404,10.41228 0.34136,1.21568 0.79841,3.34512 1.01596,4.73201 0.21755,1.38684 0.53774,2.98615 0.71158,3.55379 0.17371,0.56766 0.45785,2.12918 0.63149,3.47007 0.1736,1.34095 0.62081,3.85737 0.99374,5.59242 2.12055,9.86679 2.58494,17.9829 2.38125,41.64139 -0.11657,13.54492 -0.5406,26.17093 -0.9741,29.02252 -0.42202,2.77609 -1.08974,7.31895 -1.48415,10.09499 -1.64898,11.60593 -6.57732,32.21407 -10.23193,42.78757 -0.93453,2.70379 -2.02821,6.10752 -2.43035,7.56336 -1.3857,5.0162 -10.14111,24.12179 -15.66984,34.19326 -6.01857,10.96374 -11.94454,20.03542 -18.23196,28.84734 -0.24483,0.38473 -0.50432,0.74839 -0.79117,1.06557 -0.0556,0.0771 -0.11687,0.15497 -0.1726,0.23202 -0.12313,0.38421 -0.28696,0.87281 -0.55759,1.54565 -0.70299,1.74782 -1.49123,3.22901 -2.41535,4.86843 -0.1836,0.32571 -0.30377,0.68315 -0.45579,1.02475 -3.74262,6.10182 -4.18966,8.0888 -9.0687,8.77052 -15.12664,17.88092 -33.25927,34.45104 -52.75027,48.36811 -2.85846,2.19919 -5.95321,4.12391 -8.62789,6.48694 -2.89512,2.87315 -6.5429,4.49974 -10.09964,6.33605 -0.2404,0.095 -0.47176,0.15252 -0.71004,0.23822 -0.80139,0.50877 -2.50471,1.58328 -2.81016,1.77974 -0.99555,0.64033 -1.92454,1.16427 -2.06448,1.16427 -0.13995,0 -2.66014,1.36512 -5.60017,3.03392 -6.08878,3.45614 -25.01199,12.40345 -32.36392,15.30243 -13.39115,5.28019 -35.31038,12.06977 -43.95856,13.61622 -0.89285,0.15966 -1.82305,0.40696 -2.06705,0.54932 -0.53951,0.31491 -15.3462,3.0896 -21.36149,4.00286 -7.17387,1.08915 -14.54797,1.90145 -23.71586,2.61276 v -0.001 c -8.2484,0.63996 -27.93694,1.10328 -34.40411,0.80977 -5.71145,-0.25923 -20.39015,-1.50944 -24.71787,-2.1053 -13.59474,-1.87175 -29.5482,-4.63951 -30.73456,-5.33198 -0.23298,-0.13595 -1.22651,-0.3843 -2.20813,-0.55242 -1.96139,-0.33593 -1.83377,-0.30025 -16.1587,-4.56044 -9.7472,-2.89877 -12.36285,-3.77479 -20.70985,-6.9355 -2.20455,-0.83481 -4.52294,-1.51567 -5.15214,-1.51567 -2.0761,0.003 -8.75087,-2.66989 -10.16269,-4.07003 -0.76238,-0.75608 -5.2889,-3.30399 -10.05881,-5.66219 -36.50066,-18.04568 -68.50647,-43.03147 -94.61697,-73.86371 -8.38189,-9.89763 -20.65961,-26.97069 -26.31622,-36.59415 -7.28521,-12.39421 -15.85334,-29.87266 -20.41219,-41.64086 -0.67212,-1.73507 -1.71925,-4.43241 -2.32699,-5.99395 -1.63882,-4.21088 -5.98052,-18.47151 -7.49153,-24.60625 -2.85076,-11.57401 -4.72352,-21.50307 -5.53403,-29.33775 -0.3949,-3.81708 -0.9609,-8.78562 -1.25729,-11.04118 -0.99396,-7.56403 -0.82253,-35.6422 0.27543,-45.11146 2.11455,-18.23679 5.55508,-36.20657 8.69715,-45.42669 0.47302,-1.38807 1.22234,-3.80145 1.66501,-5.36298 1.47743,-5.21154 5.86935,-17.24611 7.74837,-21.23126 0.51558,-1.09348 0.93741,-2.17412 0.93741,-2.4014 0,-1.70493 11.81759,-25.14933 16.86925,-33.46618 11.81228,-19.44723 21.56661,-32.16341 38.65862,-50.39589 26.7552,-28.54043 63.41726,-53.88388 99.7934,-68.98493 17.31242,-7.187 38.60673,-14.01475 51.77358,-16.60054 1.65342,-0.32469 5.11024,-1.0221 7.68222,-1.55029 2.57199,-0.52818 6.02933,-1.13231 7.68273,-1.34204 1.65343,-0.20972 3.19738,-0.48933 3.43132,-0.62167 0.68652,-0.38864 14.29659,-2.04458 22.62239,-2.75229 4.11101,-0.34899 11.65881,-0.46512 18.97145,-0.52503 -0.29051,-0.32294 -0.6224,-0.68019 -0.57516,-0.79995 z m 315.8231,39.96139 c -3.46328,-0.23582 -7.53234,0.58661 -13.89062,2.67218 -3.52088,1.15488 -8.31897,1.28397 -14.27097,0.38396 -3.78107,-0.57173 -7.62942,-0.0386 -10.7611,1.49086 -1.70189,0.83121 -2.01764,0.7797 -4.10155,-0.67231 -1.2418,-0.86525 -2.86053,-1.49196 -3.5972,-1.39216 -1.31942,0.17864 -1.33945,0.6374 -1.33945,30.67875 v 30.49685 l 1.8743,1.52238 1.8743,1.52239 h 22.96708 c 12.97912,0 23.69685,-0.26192 24.64552,-0.60255 3.62503,-1.30168 3.6144,-1.21556 4.03128,-32.07194 0.43829,-32.44213 0.47407,-32.15112 -4.10776,-33.44757 -1.08223,-0.30623 -2.1694,-0.50224 -3.32383,-0.58084 z m -415.5214,2.52956 c -0.0111,0.002 -0.004,0.0449 -0.014,0.0486 0.0187,-0.008 0.0372,-0.0166 0.0558,-0.0248 -0.008,2.6e-4 -0.0346,-0.0249 -0.0419,-0.0238 z m 409.82098,1.20923 c 2.24078,-0.11531 4.17504,0.40547 6.01772,1.5508 3.73062,2.31875 4.36371,4.43116 3.20807,10.70736 -0.47938,2.60361 -1.22688,5.06944 -1.66088,5.47977 -0.56635,0.53545 -6.87335,0.79738 -22.34127,0.92811 -20.00199,0.16899 -21.6286,0.10112 -22.61774,-0.9462 -1.04711,-1.10868 -1.52935,-4.4982 -1.30535,-9.17308 0.10027,-2.09246 0.31156,-2.36575 1.82986,-2.36575 0.94419,0 3.02759,-0.85186 4.62969,-1.8929 3.46887,-2.25402 3.80995,-2.27359 9.79372,-0.55708 5.63029,1.61512 8.44877,1.33185 14.59032,-1.46657 3.06811,-1.39802 5.61507,-2.14916 7.85586,-2.26446 z m -601.25529,1.8097 c -2.14206,-0.17478 -4.08539,0.0335 -5.3821,0.66146 -2.91654,1.41237 -5.83389,4.66514 -7.1391,7.95972 -1.41899,3.58184 -1.77971,9.95569 -0.74466,13.16406 0.32455,1.00605 0.98397,3.1069 1.46503,4.66845 2.5463,8.26511 10.33464,18.91272 19.01227,25.99169 0.72162,0.58869 2.15804,1.93761 3.19154,2.99723 1.33576,1.36946 2.49453,1.92919 4.00802,1.93219 1.8313,0.005 3.1156,-0.94908 9.17877,-6.82129 10.01618,-9.70075 14.55153,-16.58297 17.40669,-26.41183 1.39762,-4.81132 1.42694,-6.37899 0.27285,-14.60892 -0.379,-2.70255 -2.58119,-6.04417 -5.09995,-7.73803 -3.35494,-2.25618 -6.46924,-2.24574 -13.35887,0.0439 -7.23143,2.40354 -10.29819,2.3657 -16.2357,-0.20154 -2.0918,-0.90443 -4.43274,-1.46232 -6.57479,-1.63711 z m 30.47514,4.04007 c 1.14744,0.23425 2.34504,0.8742 3.68349,1.93786 4.59059,3.64809 5.43663,7.89587 3.19723,16.05897 -1.39831,5.09716 -6.61705,15.71794 -8.37055,17.03514 -0.23097,0.17351 -1.59467,1.73502 -3.03031,3.47007 -1.43561,1.73505 -4.36721,4.78722 -6.51433,6.78253 -2.14714,1.9953 -4.2834,3.62769 -4.74751,3.62769 -4.53734,0 -18.8685,-17.74273 -22.28702,-27.59263 -3.48448,-10.03987 -2.44071,-16.78135 3.03031,-19.56728 3.76134,-1.91534 6.75449,-1.77448 9.72809,0.45733 1.39538,1.04731 3.7329,2.20798 5.19451,2.57969 4.40958,1.12139 7.11777,0.42682 16.73438,-4.2938 1.1372,-0.55824 2.23427,-0.72983 3.38171,-0.49557 z m -25.01398,11.59722 c -0.46383,-0.30502 -0.85008,-0.12826 -1.5229,0.29146 -2.39058,1.4913 -2.10987,3.25406 1.03559,6.49676 1.58487,1.63387 4.21835,3.77663 5.85184,4.76146 3.16664,1.90915 5.62883,2.28764 6.5102,1.00149 0.55129,-0.80442 0.77475,-6.77746 0.25373,-6.78046 -0.15761,-0.001 -1.27013,0.33415 -2.4722,0.74466 -3.07296,1.04945 -5.11226,0.008 -7.66827,-3.91501 -0.98275,-1.50843 -1.52416,-2.29534 -1.98799,-2.60036 z m 463.53398,4.55941 -0.6475,0.49145 c 0.0993,0.0466 0.20567,0.12039 0.3054,0.16846 z m 118.0574,0.26407 c 11.39019,0.0709 21.23572,0.34296 21.87876,0.60461 1.32368,0.53861 1.27596,0.25259 1.52549,9.1736 0.21308,7.61828 -0.42276,9.22115 -3.85868,9.72344 -1.19692,0.17498 -9.84189,0.45265 -19.21123,0.61754 -16.18526,0.28473 -22.14179,-0.0847 -23.60166,-1.46348 -1.55934,-1.47264 -2.2868,-11.74354 -1.06608,-15.05076 1.37038,-3.71262 1.59681,-3.74642 24.3334,-3.60495 z m 7.30188,3.94395 c -1.28,0.13362 -2.40893,0.45639 -2.697,0.89658 -0.75075,1.14723 -0.40347,10.64194 0.42375,11.58327 0.51155,0.58213 2.02303,0.92553 4.0721,0.92553 2.81307,0 3.2582,-0.17204 3.2582,-1.26142 0,-1.0215 -0.44503,-1.26194 -2.33784,-1.26194 -1.5532,0 -2.33836,-0.29519 -2.33836,-0.87902 0,-0.97296 1.40655,-1.64486 3.44372,-1.64486 2.15906,0 1.21338,-2.14424 -1.11363,-2.52491 -1.16136,-0.18998 -1.99626,-0.71694 -1.99626,-1.26039 0,-0.54347 0.8349,-1.07091 1.99626,-1.2609 2.51761,-0.41184 3.06572,-2.29995 0.89194,-3.07268 -0.89182,-0.31703 -2.32289,-0.37289 -3.60288,-0.23926 z m -9.71311,0.15606 c -2.5402,0 -3.4034,0.28628 -4.23126,1.4025 -1.49814,2.02008 -1.34337,7.26797 0.28887,9.7963 1.46016,2.26179 4.07313,2.75727 6.32829,1.19992 1.53407,-1.05943 0.81293,-2.30373 -1.3348,-2.30373 -2.13591,0 -3.94718,-2.58129 -3.36052,-4.78886 0.30302,-1.14013 1.21187,-1.93119 2.9683,-2.58278 3.65961,-1.35766 3.32941,-2.72335 -0.65888,-2.72335 z m -10.70994,0.0444 c -0.41314,0.0607 -0.84738,0.55329 -1.25832,1.57406 -0.97937,2.43289 -0.78371,8.21789 0.36587,10.8164 1.45351,3.28544 2.44795,1.93147 2.8422,-3.87057 0.33952,-4.9966 -0.71031,-8.70191 -1.94975,-8.51989 z m 13.01058,19.22467 c 10.15346,0.11283 20.20793,0.44161 21.08657,0.88573 3.51192,1.77507 3.10112,9.8986 -0.5917,11.70213 -1.61042,0.78645 -5.32521,0.94335 -21.52013,0.90795 -11.93291,-0.026 -20.12646,-0.29582 -20.98994,-0.69091 -1.38126,-0.63202 -2.92592,-4.14702 -2.92592,-6.65851 0,-2.61096 1.43396,-5.1353 3.25872,-5.73608 1.27619,-0.42016 11.52893,-0.52314 21.6824,-0.41031 z m -394.68651,5.91695 c 0.004,0.23275 0.44559,1.08745 0.71262,1.69499 0.0472,-0.46662 0.0794,-0.82081 0.12816,-1.34566 -0.0688,-0.085 -0.21277,-0.31549 -0.25528,-0.34882 -0.40685,-0.31889 -0.59022,-0.29872 -0.5855,-5.1e-4 z m 337.01096,57.68537 c 0,-0.0229 -1.70162,0.78224 -1.85157,0.83147 0.0646,0.0644 0.1287,0.12924 0.19276,0.1943 0.30636,-0.20256 1.65881,-1.0019 1.65881,-1.02577 z m -617.80364,7.04711 c 1.20907,0.24126 13.77229,4.06662 27.9182,8.50077 14.1459,4.43416 31.13078,9.69236 37.74446,11.68456 19.0588,5.74105 19.95775,6.33998 18.45417,12.29589 -7.98265,31.62008 -10.02175,43.80335 -11.53159,68.88882 -0.65197,10.83399 -0.65346,16.41695 -0.002,26.81438 0.74695,11.94103 2.41036,28.75333 3.07837,31.11335 0.14734,0.52052 0.43896,2.22377 0.64802,3.7853 0.77626,5.79826 2.25086,12.77184 5.80481,27.44535 2.40984,9.94973 3.5785,9.16446 -25.80411,17.35088 -4.04169,1.12606 -8.55138,2.40335 -10.02109,2.83859 -1.4697,0.43529 -4.92653,1.42347 -7.68222,2.19625 -2.75568,0.77277 -5.76216,1.63684 -6.68073,1.91978 -0.91857,0.28291 -6.17937,1.84734 -11.69076,3.47679 -5.5114,1.62943 -12.69094,3.78198 -15.95458,4.78317 -3.26364,1.00118 -6.73971,1.82004 -7.72459,1.82004 -4.356604,0 -6.500072,-5.17018 -10.984862,-26.49864 -1.90461,-9.05777 -4.419055,-23.11204 -4.79764,-26.81438 -0.141935,-1.38801 -0.544216,-4.36935 -0.893485,-6.62492 -2.218624,-14.32772 -3.456815,-43.54012 -2.687692,-63.40802 0.857491,-22.15073 2.173543,-34.65719 5.742802,-54.57548 0.217649,-1.21456 0.476933,-2.77604 0.576193,-3.47007 0.09925,-0.69399 0.693964,-3.67479 1.321883,-6.6244 0.62795,-2.94956 1.391654,-6.71081 1.697054,-8.35815 0.30541,-1.64738 0.711197,-3.23288 0.901237,-3.5233 0.19004,-0.29038 0.519365,-1.49771 0.732255,-2.68304 0.21286,-1.18534 0.53907,-2.62955 0.72502,-3.2091 0.18598,-0.57955 0.452789,-1.57315 0.592729,-2.20814 0.75397,-3.42068 3.657366,-12.83798 4.316536,-14.00121 1.27763,-2.25461 3.73099,-3.40807 6.20168,-2.91507 z m 773.08512,6.93601 c 0.89145,4.3e-4 1.58217,0.14083 2.29081,0.37414 2.34333,0.7715 3.53973,2.91672 5.06533,9.08265 0.60099,2.42906 1.39056,5.55209 1.75441,6.94014 0.36385,1.38804 0.77004,3.09333 0.90279,3.78944 0.13282,0.69612 0.83903,4.1031 1.56941,7.57111 1.95563,9.28631 2.68108,13.56904 5.07463,29.9651 0.53186,3.6436 1.0091,7.88197 1.0604,9.41854 0.0514,1.5366 0.21821,2.98446 0.37103,3.21789 0.15273,0.23337 0.44377,3.23524 0.64699,6.6704 0.20322,3.43521 0.65948,10.36226 1.0139,15.39389 0.82046,11.64462 0.82533,22.6432 0.0134,33.4393 -0.35207,4.68462 -0.67478,9.65318 -0.71778,11.04119 -0.13423,4.34676 -1.33279,16.11227 -2.37764,23.34431 -3.0229,20.92316 -4.99699,30.85844 -9.73222,48.97996 -2.45864,9.40901 -3.1063,11.10688 -4.9413,12.94443 h -5.2e-4 c -1.97407,1.97683 -4.22107,2.58557 -6.63008,1.79627 -0.36742,-0.12038 -3.07314,-0.93216 -6.01256,-1.80402 -2.93939,-0.87187 -9.70341,-2.98594 -15.03112,-4.69791 -8.74885,-2.81126 -35.07209,-10.87855 -46.09538,-14.12679 -13.57816,-4.00118 -15.86304,-5.00816 -16.45997,-7.25433 -0.49374,-1.85781 -0.0145,-5.1094 1.65571,-11.23136 2.11905,-7.76707 3.47417,-13.32878 4.12223,-16.91835 5.08425,-28.16268 6.00687,-37.29496 6.00687,-59.38707 -0.001,-17.69995 -0.51819,-25.36732 -2.74764,-40.73136 -1.81125,-12.48175 -1.72966,-12.0406 -4.42712,-23.87658 -1.31734,-5.78013 -2.52067,-12.24835 -2.67426,-14.3738 -0.27075,-3.74662 -0.21439,-3.90802 1.84692,-5.29425 1.16943,-0.7864 4.12423,-1.94894 6.56652,-2.58382 2.44236,-0.63488 8.95025,-2.41923 14.46165,-3.96514 5.5114,-1.54588 12.7263,-3.55031 16.03313,-4.45399 3.30683,-0.9037 7.21455,-2.0272 8.68423,-2.49649 1.46975,-0.46931 4.92703,-1.47983 7.68273,-2.24585 2.7557,-0.76601 8.01651,-2.32925 11.69076,-3.47421 12.17975,-3.79536 16.65935,-5.05473 19.33371,-5.05344 z M 737.41442,413.9644 c -0.28646,-0.0234 -0.88092,0.20215 -1.24282,0.22892 0.09,0.2856 0.15762,0.57619 0.23771,0.86403 1.68063,-0.62572 2.24002,-0.99199 1.00511,-1.09295 z m 107.65906,46.56046 c -3.69357,-0.0889 -7.38599,0.154 -9.58701,0.7643 -4.19442,1.16303 -9.88371,4.52804 -12.92686,7.64604 -2.7834,2.85185 -5.21316,6.60448 -4.63176,7.15357 0.17637,0.16658 1.47587,-1.4e-4 2.8882,-0.37052 1.41226,-0.37036 4.93068,-0.67696 7.81864,-0.67696 4.61956,-0.003 5.72872,0.23724 9.22321,1.99626 3.36239,1.69257 4.37632,2.64242 6.60683,6.18825 4.40048,6.99558 3.52483,12.50595 -2.96157,18.63194 -2.6798,2.53087 -4.37493,3.54498 -7.2378,4.331 -4.54706,1.24843 -5.55906,1.26149 -11.7166,0.15245 -2.6638,-0.47977 -4.84312,-0.61538 -4.84312,-0.30179 0,1.12979 3.36148,5.56517 6.16087,8.12922 3.55837,3.25923 8.1881,5.53277 13.48083,6.62026 5.22499,1.07366 8.44935,1.091 13.42657,0.0734 7.91969,-1.61955 14.97181,-6.04212 20.05976,-12.58011 1.94759,-2.50255 4.7219,-4.22144 6.81353,-4.22144 0.67114,0 2.82097,1.13532 4.77697,2.52336 3.7249,2.6433 6.34003,3.21156 7.0249,1.526 0.52672,-1.29546 0.51229,-31.68512 -0.0155,-33.54524 -0.60275,-2.12403 -3.65789,-1.87624 -6.56239,0.53227 -1.47424,1.22246 -3.35798,2.07871 -5.04052,2.29185 -2.86371,0.36274 -3.67192,-0.22761 -11.25875,-8.22172 -3.09044,-3.2563 -7.43939,-5.96535 -11.90573,-7.4166 -2.20468,-0.71636 -5.89913,-1.13684 -9.5927,-1.22577 z M 166.333,464.82692 c -2.65087,0.22851 -3.0733,0.34221 -15.67243,4.2199 -12.56859,3.86828 -19.85917,7.53323 -31.05495,15.61249 -5.16936,3.73034 -9.57955,6.78253 -9.80044,6.78253 -0.22086,0 -1.56604,-0.9936 -2.98948,-2.20814 -4.04791,-3.4538 -4.82454,-3.0631 -5.65443,2.84531 -0.60592,4.31384 -3.026489,6.30297 -7.669819,6.30297 -3.959444,0 -4.455978,1.29434 -1.117761,2.91352 4.74882,2.30333 6.28625,5.14798 5.62653,10.40867 -0.21553,1.7169 -0.22201,3.53871 -0.01499,4.04833 0.70051,1.72409 2.56383,0.94006 4.9196,-2.07016 3.08298,-3.93951 4.50211,-4.07276 8.94209,-0.83767 1.94174,1.4148 3.72815,2.57245 3.96978,2.57245 0.24162,0 0.43925,-1.24253 0.43925,-2.76159 0,-3.44002 0.83139,-4.11772 5.8782,-4.79144 2.18021,-0.29107 4.96571,-1.01861 6.1898,-1.61644 2.93711,-1.43444 15.11492,-6.26714 21.00079,-8.33437 3.91223,-1.37407 5.89209,-1.65673 12.1176,-1.73013 10.98783,-0.12943 12.03796,-1.15147 11.42204,-11.11663 -0.35711,-5.77785 -2.34533,-16.74242 -3.41994,-18.86138 -0.66245,-1.30625 -1.19723,-1.54311 -3.11144,-1.37822 z m 677.91469,0.91933 c 2.50624,-0.20655 5.43002,-0.0156 7.34839,0.48007 2.92445,0.75555 9.34329,4.1242 11.19105,5.87303 1.21396,1.149 5.28425,6.77659 6.99389,9.67021 0.85491,1.44694 2.17346,2.78393 2.93057,2.97088 1.46659,0.36224 6.64175,-1.51703 7.40988,-2.69079 0.7506,-1.14703 3.61468,-0.80738 4.36563,0.51779 0.38036,0.67119 0.69143,4.38069 0.69143,8.24343 0,3.86274 -0.31107,7.57271 -0.69143,8.24394 -0.89173,1.57365 -3.95443,1.59963 -6.06578,0.0522 -4.8827,-3.57891 -6.48154,-3.24864 -9.41235,1.94459 -3.14841,5.57879 -7.89453,10.20145 -12.77596,12.44317 -5.78081,2.65473 -12.00374,3.04048 -18.82004,1.16737 -4.65026,-1.27791 -4.7064,-1.75747 -0.42892,-3.668 8.75735,-3.91143 13.18809,-8.62796 14.78618,-15.74012 2.32913,-10.36535 -3.28734,-19.83391 -14.50092,-24.44761 -2.30922,-0.95013 -4.19871,-1.90526 -4.19871,-2.12235 0,-0.74889 7.02617,-2.59564 11.17709,-2.9378 z m -680.24943,1.19837 c 1.64089,0.26383 2.36109,1.30301 2.36109,3.14968 0,1.92922 -1.56303,3.05098 -4.25245,3.05098 -4.55982,0 -27.98902,10.22849 -38.50256,16.80931 -3.12313,1.95487 -6.57995,3.75525 -7.68222,4.00079 -1.10229,0.24555 -2.60552,0.62577 -3.34036,0.84491 -1.23367,0.36795 -3.70205,-0.46226 -2.9869,-1.00459 0.17308,-0.13122 1.36709,-0.91371 2.65307,-1.73891 1.286,-0.82516 2.4885,-1.65618 2.67219,-1.8464 0.71082,-0.73606 14.48324,-9.494 14.92984,-9.494 0.16402,0 2.20789,-1.08761 4.54184,-2.4169 5.67045,-3.22957 15.89723,-7.86839 21.72167,-9.85263 3.6826,-1.25456 6.2439,-1.76606 7.88479,-1.50224 z m 1.05058,8.09305 c 1.48515,0 2.18406,1.92272 1.86087,5.11803 -0.18742,1.85289 -0.4835,2.16555 -2.22054,2.34508 -7.69871,0.79572 -24.67356,6.50791 -37.74136,12.7 -4.42532,2.09691 -8.21071,3.81217 -8.41189,3.81217 -0.20112,0 -0.18264,-0.54666 0.0424,-1.21491 0.2675,-0.79601 -0.005,-1.44872 -0.78961,-1.89239 -1.13911,-0.64378 -1.1325,-0.72569 0.13746,-1.65623 1.79642,-1.31629 18.13868,-9.09937 24.38352,-11.61273 2.7557,-1.10914 5.91228,-2.39387 7.01456,-2.85461 3.47866,-1.45404 14.38422,-4.74441 15.72462,-4.74441 z m 2.26343,9.63094 c 0.5058,0.16593 0.71804,0.58272 1.03973,1.38183 0.8407,2.08825 0.88987,6.4557 0.0791,6.92929 -0.33023,0.19272 -3.11098,0.49609 -6.17946,0.67386 -3.06845,0.17773 -6.33011,0.46755 -7.24866,0.64389 -0.91856,0.17638 -2.36085,0.44402 -3.20497,0.59479 -3.26037,0.58284 -10.11752,3.17019 -16.96589,6.4022 -3.92895,1.85421 -9.4905,3.97796 -12.35894,4.71909 -2.86845,0.74112 -5.7411,1.48963 -6.3841,1.66346 -1.85086,0.50056 -1.59012,-3.66308 0.33383,-5.3299 1.81479,-1.57229 6.72918,-3.93769 13.32115,-6.41202 2.68566,-1.00809 7.28838,-2.9294 10.2278,-4.2695 5.75364,-2.62305 8.15414,-3.45033 13.36094,-4.60489 1.83713,-0.40732 4.39221,-0.9884 5.67821,-1.29139 1.28599,-0.30302 3.76105,-0.74377 5.49992,-0.97927 1.49638,-0.2027 2.29558,-0.28738 2.80138,-0.12144 z m -63.31448,6.20272 c 0.60215,-0.0559 1.30895,0.70928 2.01279,2.3058 0.57368,1.30128 1.385,2.57439 1.80299,2.82929 0.41796,0.25497 2.78879,0.46835 5.26893,0.47335 2.95523,0.006 4.50981,0.26045 4.50981,0.73743 0,0.4003 -1.23725,1.80658 -2.74919,3.12487 -2.9721,2.59135 -2.85067,1.86508 -1.52032,9.0811 0.48628,2.63764 0.0977,2.7106 -3.14606,0.58756 l -2.47685,-1.62109 -2.69131,1.29656 c -1.47993,0.71307 -2.87932,1.58428 -3.10989,1.93632 -0.2305,0.35182 -0.88158,0.64027 -1.44694,0.64027 -0.854629,0 -0.957599,-0.61285 -0.611849,-3.6282 0.228669,-1.99527 0.182759,-3.94436 -0.101803,-4.33152 -0.28457,-0.38714 -1.794834,-1.31577 -3.356384,-2.06344 -1.56155,-0.74771 -2.839103,-1.61085 -2.839103,-1.91823 0,-0.3074 1.51564,-0.75566 3.36827,-0.99632 3.864919,-0.50202 4.996769,-1.6599 5.701979,-5.83272 0.28533,-1.68834 0.78277,-2.56513 1.38493,-2.62103 z m 648.65033,78.59882 c -0.11821,0.46038 -0.23143,0.92174 -0.35295,1.38131 1.13381,-0.0248 1.95928,-0.19095 1.81125,-0.6103 -0.0608,-0.17223 -1.04428,-0.52043 -1.4583,-0.77101 z M 193.1386,581.16763 c 2.16433,0.31567 3.15053,1.86049 3.89227,4.92373 0.65302,2.69688 3.75928,10.77889 5.69474,14.81666 0.49902,1.04104 1.73767,3.88009 2.75229,6.30918 4.33381,10.37547 16.54711,31.65032 24.99124,43.53378 5.04032,7.09324 7.67942,10.70314 8.07186,11.04118 0.20141,0.17352 1.09436,1.30937 1.98437,2.52388 9.65481,13.17536 37.23614,40.72054 51.82009,51.7524 8.14319,6.15986 16.39452,12.94769 17.26562,14.20326 1.58046,2.27807 2.11256,1.39077 -12.32328,20.55947 -3.49564,4.64166 -6.86782,9.14893 -7.49309,10.01645 -0.6253,0.86755 -3.08165,4.1328 -5.45858,7.25588 -2.37693,3.12309 -4.95143,6.5301 -5.72161,7.57112 -0.77018,1.04104 -4.47512,6.00954 -8.23309,11.04118 -3.75796,5.03161 -7.32903,9.85841 -7.93543,10.72596 -0.60641,0.86751 -1.95654,2.50882 -3.00034,3.64733 -3.55517,3.87784 -4.28049,3.60672 -17.34674,-6.47609 -22.52238,-17.37975 -48.81827,-41.57443 -63.04628,-58.00835 -1.28597,-1.48541 -4.14236,-4.777 -6.3469,-7.3148 -5.26047,-6.05556 -8.02041,-9.45318 -12.03596,-14.81511 -1.81912,-2.42904 -3.54069,-4.70025 -3.82561,-5.04724 -2.06895,-2.51977 -7.30727,-9.83776 -9.52396,-13.30462 -1.4697,-2.29865 -3.79892,-5.78192 -5.17591,-7.74061 -1.37697,-1.9587 -2.50428,-3.76849 -2.50528,-4.02198 -8.8e-4,-0.25353 -1.05105,-2.01127 -2.33422,-3.9057 -4.75476,-7.0199 -23.05286,-42.63523 -23.05286,-44.87013 0,-0.19816 -0.56394,-1.55132 -1.25315,-3.00705 -0.6892,-1.45579 -2.21275,-5.20198 -3.38533,-8.32507 -1.17259,-3.12309 -2.39079,-6.24663 -2.70732,-6.94067 -1.66587,-3.65269 -2.69239,-7.91738 -2.27945,-9.47125 0.58823,-2.21343 3.71484,-3.53692 15.97163,-6.76135 11.32981,-2.98061 11.97196,-3.15696 18.70532,-5.13457 7.76338,-2.28019 16.59713,-4.844 17.36897,-5.04103 0.92628,-0.23645 14.32155,-4.15653 16.36747,-4.78989 0.91857,-0.28435 3.02277,-0.87238 4.6762,-1.30638 1.65341,-0.43402 5.16119,-1.46077 7.79488,-2.28152 2.02762,-0.63189 3.67871,-1.06517 5.03587,-1.27485 1.01786,-0.15727 1.87012,-0.18843 2.59157,-0.0832 z m 599.11795,5.55263 c 2.62732,0.009 84.78825,25.72078 86.51513,27.07432 1.44668,1.13392 1.34,2.51014 -0.55345,7.13858 -0.88874,2.17247 -2.41335,5.93737 -3.38791,8.36641 -0.97456,2.42912 -2.35161,5.62002 -3.06028,7.09104 -0.70871,1.47102 -1.28881,2.84676 -1.28881,3.05718 0,0.88971 -8.47818,18.14964 -12.77906,26.01598 -20.68441,37.83147 -45.18836,68.91278 -79.1807,100.43367 -12.50129,11.59238 -17.43821,15.85842 -29.62455,25.59792 -8.50693,6.79892 -14.20651,10.84872 -16.353,11.61944 -0.97431,0.34985 -2.09531,0.63614 -2.49132,0.63614 -0.8955,0 -6.34207,-5.33047 -8.42326,-8.24394 -0.85112,-1.19146 -3.2561,-4.47701 -5.34438,-7.30085 -2.0883,-2.82384 -5.60066,-7.60136 -7.80521,-10.61692 -2.20456,-3.01564 -5.1227,-6.95139 -6.48487,-8.74624 -3.02815,-3.98992 -4.09585,-5.42361 -9.71311,-13.04261 -2.43047,-3.29661 -4.59285,-6.13571 -4.80539,-6.30918 -0.21258,-0.17349 -1.19669,-1.45103 -2.18694,-2.8391 -0.9902,-1.38802 -3.02377,-4.08543 -4.51911,-5.99395 -4.19954,-5.35984 -5.54442,-8.38877 -4.59662,-10.35337 0.42893,-0.88904 1.41019,-2.00822 2.18023,-2.48719 0.77008,-0.47898 3.85205,-2.71291 6.8492,-4.96404 17.74673,-13.32935 39.98289,-34.3453 53.44531,-50.51319 2.37456,-2.85176 4.6749,-5.61088 5.11184,-6.13141 7.61469,-9.07133 22.75233,-32.00419 29.36099,-44.48049 2.14504,-4.04946 8.9614,-19.07836 12.16205,-26.81439 2.99409,-7.23671 3.81824,-8.20461 6.97322,-8.19381 z m -355.85218,35.34306 c 0.20839,0.42768 0.39624,0.86466 0.60668,1.2914 0.0113,-0.39247 0.0689,-0.55085 0.0837,-0.92243 -0.22727,-0.12828 -0.46334,-0.24022 -0.6904,-0.36897 z m -178.64181,6.91017 c -0.4238,0.34757 -0.63752,0.39695 -1.25264,0.99788 l -2.30218,2.24895 2.00401,-0.9834 c 1.01177,-0.49645 2.06729,-0.84081 2.60604,-0.90589 -0.34265,-0.45681 -0.69459,-0.91412 -1.05523,-1.35754 z m 471.72211,2.47582 c 0.0146,0.12236 0.0305,0.24434 0.0444,0.37311 0.37517,0.0929 0.34876,-0.0438 -0.0444,-0.37311 z m -548.47143,1.98489 c -2.21617,-0.18911 -3.57948,0.60516 -5.50819,2.78433 -2.05,2.31619 -3.28531,3.04922 -6.93704,4.11448 -5.53193,1.61369 -6.21668,2.14872 -6.21668,4.85862 0,2.86093 0.8383,4.21957 3.59668,5.82961 4.62374,2.69882 4.45405,1.47997 4.43435,31.92519 -0.0212,32.68386 -0.20725,31.65431 5.78156,32.00683 h 5.2e-4 c 8.32941,0.49041 9.30505,0.44519 10.73578,-0.50126 0.80584,-0.53305 1.82837,-2.11391 2.27221,-3.51297 1.37629,-4.3384 2.82046,-4.93548 11.41378,-4.71754 6.78732,0.17211 7.53328,0.3116 8.65425,1.61903 0.67466,0.78689 1.40865,2.17568 1.63142,3.08611 0.22276,0.91037 0.83459,2.30511 1.35961,3.09904 0.93495,1.41375 1.11554,1.43419 8.77207,1.01079 4.44488,-0.24584 8.02949,-0.73257 8.30854,-1.1281 0.26994,-0.38264 0.49575,-5.73493 0.50075,-11.89436 0.007,-7.75288 0.23794,-11.19932 0.7493,-11.19932 0.40623,0 1.6317,0.71012 2.72335,1.57768 1.09166,0.86751 2.35244,1.57717 2.8019,1.57717 5.20106,0 1.25197,-17.40812 -4.74286,-20.90725 -1.22271,-0.71367 -3.707,-1.66745 -5.5206,-2.11925 -2.79518,-0.69648 -3.4176,-0.68509 -4.08657,0.0765 -0.93241,1.06103 -1.05772,0.93715 2.74143,2.70629 5.50164,2.56186 8.34744,5.72549 9.08886,10.10429 0.50699,2.9944 0.011,3.18007 -2.47892,0.92708 -1.7087,-1.54612 -1.85188,-1.57372 -2.466,-0.47336 -0.35857,0.64247 -0.87073,6.90975 -1.13843,13.92732 -0.3685,9.65971 -0.71187,12.93547 -1.41232,13.48445 -1.31313,1.02925 -2.78664,-0.27758 -3.31556,-2.94039 -0.45676,-2.29939 -1.82156,-3.77457 -2.90628,-3.14141 -0.37339,0.21792 -1.03629,1.52351 -1.4733,2.90111 -1.56065,4.91955 -3.88299,4.88725 -6.07043,-0.0837 -1.26644,-2.878 -1.84718,-3.41856 -5.4777,-5.0984 -5.63322,-2.6064 -12.33942,-3.12743 -16.21555,-1.25987 -2.96402,1.42812 -5.5359,4.06224 -5.5702,5.70456 -0.0327,1.57064 -1.805,3.42632 -2.89491,3.03134 -0.64565,-0.23399 -1.13714,-1.76729 -1.45005,-4.52686 -0.37836,-3.33673 -0.68611,-4.1343 -1.53685,-3.9796 -0.58519,0.10647 -1.32028,1.18515 -1.63349,2.39727 -1.88609,7.29918 -2.31928,8.03633 -3.61374,6.14743 -0.29725,-0.43377 -0.54053,-13.57529 -0.54053,-29.20287 0,-32.18891 0.21799,-30.84976 -5.38727,-33.11891 -4.19805,-1.69953 -4.03489,-3.30515 0.54363,-5.34127 1.929,-0.85786 4.78445,-1.85959 6.34535,-2.22571 1.85834,-0.43589 3.34307,-1.31054 4.30103,-2.53421 1.64865,-2.10601 4.44361,-2.512 6.15673,-0.894 1.05336,0.99479 3.34192,7.28644 4.03903,11.10371 0.21261,1.16434 0.66815,6.2912 1.01183,11.39259 0.41257,6.12421 0.9768,9.91785 1.66088,11.16728 0.94514,1.72607 1.37315,1.90894 4.87722,2.08152 2.86116,0.14091 13.29404,-0.72765 16.08894,-1.33945 0.12251,-0.0268 0.0992,-0.39827 -0.0517,-0.82579 -0.19347,-0.54818 -1.75383,-0.71931 -5.29321,-0.57981 -6.3252,0.24933 -9.77146,-0.61851 -12.27884,-3.09283 l -1.97249,-1.94665 -0.005,-10.20868 c -0.005,-9.02278 -0.1684,-10.53905 -1.4025,-13.0483 -1.5611,-3.17412 -6.13447,-7.67003 -8.44031,-8.29717 -0.98078,-0.26675 -1.81409,-0.43916 -2.55281,-0.5023 z m 546.38991,18.37098 c -0.003,0.004 -0.007,0.009 -0.01,0.0129 0.003,-0.002 0.006,-0.0102 0.01,-0.0129 z m 50.24757,9.88156 c -0.10251,3.09868 -10.37954,19.03803 -16.05586,24.90236 -3.96711,4.09847 -3.87491,4.75159 0.74879,5.30717 4.29576,0.51621 4.79977,1.10669 3.30161,3.87005 -0.68706,1.26731 -3.15835,4.47695 -5.49166,7.13238 -2.33334,2.65548 -4.7804,5.69907 -5.43791,6.76393 l -1.19528,1.93631 1.74925,0.41445 c 0.96226,0.22823 3.30398,0.25528 5.20382,0.061 7.01067,-0.71808 10.66094,2.04612 10.90424,8.25737 0.0777,1.98382 0.16207,3.79979 0.18707,4.03593 0.0252,0.23611 0.72202,0.53328 1.54874,0.65991 3.00972,0.46103 10.20116,-0.30194 11.1895,-1.18701 0.69219,-0.61984 1.00252,-2.17637 1.00252,-5.03277 0,-3.829 0.14839,-4.25006 2.00402,-5.68854 2.08323,-1.61487 1.85305,-1.60229 9.68674,-0.5333 2.15631,0.29424 3.37569,0.14835 4.31344,-0.51521 1.28565,-0.90967 1.27846,-0.96581 -0.42737,-3.40031 -0.95407,-1.36158 -2.86006,-3.5938 -4.2354,-4.96042 -3.41846,-3.39671 -6.99906,-8.38215 -6.99906,-9.74411 0,-1.32552 1.2878,-1.88929 4.31499,-1.88929 1.21095,0 2.58875,-0.44039 3.06183,-0.97875 0.73196,-0.83297 0.35636,-1.46741 -2.52181,-4.25866 -4.51261,-4.37638 -9.62899,-11.75096 -13.58419,-19.57968 -1.78218,-3.52768 -3.25292,-6.03533 -3.26802,-5.57279 z m 0.21188,9.66556 c 0.5526,-0.18565 1.03483,0.10469 1.35805,0.90021 0.3647,0.89749 4.62269,7.21895 5.91592,8.78292 2.15741,2.60905 3.86091,5.67091 3.56309,6.40375 -0.19609,0.48279 -1.26565,1.0495 -2.3766,1.25935 -1.692,0.3196 -2.01951,0.67895 -2.01951,2.21537 0,2.61228 1.30019,5.22818 5.59139,11.24789 2.06863,2.90181 3.76101,5.51074 3.76101,5.79758 0,0.69372 -0.76997,0.65837 -4.16564,-0.1912 -2.32223,-0.58103 -3.30249,-0.53254 -5.30458,0.26355 -2.18983,0.87082 -2.5065,1.29231 -2.91869,3.88813 -0.25434,1.60129 -0.27855,3.77729 -0.0548,4.83537 0.22408,1.05806 0.0986,2.46857 -0.27853,3.13417 -0.79546,1.40378 -4.74009,1.68862 -5.8291,0.42117 -0.37266,-0.43378 -0.79057,-2.97992 -0.92863,-5.65806 -0.14596,-2.82873 -0.61127,-5.20829 -1.11053,-5.6782 -1.11432,-1.0488 -8.42448,-0.94522 -9.80767,0.13901 -2.13741,1.6753 -1.60415,-0.006 1.72393,-5.4374 4.76699,-7.77932 7.48803,-13.37307 7.04091,-14.47353 -0.20795,-0.51171 -1.13701,-1.20265 -2.06499,-1.53583 -0.92796,-0.33322 -1.68413,-0.82615 -1.68413,-1.09502 0.002,-0.26882 1.50756,-2.90176 3.34605,-5.85132 1.83846,-2.94958 3.84674,-6.28569 4.46277,-7.4135 0.6048,-1.10728 1.22765,-1.76876 1.78026,-1.95441 z m -109.0998,64.39814 c 0.51961,0.0686 1.03518,0.36027 1.82469,0.91261 0.9998,0.69942 2.50439,2.23939 3.34347,3.42201 0.83907,1.18265 1.89143,2.59318 2.33836,3.13417 1.38216,1.67316 3.47752,4.50222 8.58603,11.59258 4.30706,5.97796 9.37345,12.94472 13.10773,18.0237 0.6378,0.86752 5.64251,7.53929 11.12129,14.82649 10.67235,14.19505 14.42651,19.49249 14.42651,20.35535 0,1.02958 -4.33754,4.72534 -8.67389,7.39076 -9.25213,5.68704 -14.06886,8.5323 -14.4446,8.5323 -0.21508,0 -1.1889,0.53242 -2.16421,1.18339 -3.31625,2.21352 -21.78521,11.64807 -29.49691,15.06781 -12.47783,5.53326 -14.08917,6.21893 -20.04167,8.53023 -22.10524,8.58309 -48.46776,16.13862 -69.81072,20.00756 -2.20456,0.39966 -5.06692,0.98229 -6.36085,1.29501 -2.30241,0.55654 -3.70405,0.76808 -18.02319,2.71612 -7.46454,1.01548 -15.79438,1.89633 -27.72389,2.93212 -11.30196,0.98136 -24.93788,0.76488 -27.49031,-0.43667 -4.01004,-1.88771 -3.89235,-0.59274 -4.07831,-44.73939 -0.16853,-39.99984 -0.155,-40.46626 1.2051,-42.09923 1.8411,-2.21054 4.5917,-2.77881 15.66674,-3.23805 33.9383,-1.40719 68.38951,-8.60372 99.87297,-20.86178 11.35873,-4.42254 35.04437,-15.93973 41.96798,-20.40702 5.33898,-3.44481 11.3663,-7.02073 12.99818,-7.71219 0.80629,-0.34165 1.32989,-0.49649 1.8495,-0.42788 z m -352.43327,0.49093 c 0.7709,0 3.04213,0.96807 5.04672,2.15129 4.74181,2.7989 13.55152,7.85894 16.97726,9.75082 9.4162,5.20004 11.90202,6.5018 16.39538,8.58656 20.34444,9.43905 44.98365,17.59141 65.8027,21.77231 2.20456,0.44273 5.6619,1.16252 7.68274,1.59939 2.02086,0.43684 6.07916,1.13337 9.01857,1.54822 2.93941,0.4148 6.84709,0.99395 8.68422,1.28675 3.97405,0.63338 16.5577,1.68414 29.07265,2.42776 5.88393,0.34959 9.73303,0.87941 11.04635,1.52083 1.962,0.95822 3.47639,2.95997 3.69073,4.87774 0.0581,0.52052 0.0704,18.88247 0.0269,40.80423 l -0.0791,39.85751 -1.72961,1.94149 -1.72961,1.94096 -10.79624,-0.0858 c -19.26505,-0.15308 -51.31449,-3.52786 -67.91472,-7.1515 -2.02084,-0.44111 -5.47765,-1.16269 -7.68222,-1.60352 -2.20456,-0.44083 -6.26287,-1.3545 -9.01857,-2.03037 -2.7557,-0.67582 -5.46142,-1.31551 -6.01255,-1.42213 -2.17063,-0.41969 -15.9757,-4.2808 -20.70933,-5.7919 -24.87458,-7.94088 -45.33297,-16.31963 -65.07097,-26.65108 -18.07547,-9.46126 -34.52074,-19.40564 -36.27634,-21.93613 -0.96872,-1.39627 -0.97278,-1.74038 -0.0512,-3.55741 0.56148,-1.10623 5.94402,-8.5516 11.96155,-16.54576 6.01752,-7.9941 12.44417,-16.59075 14.2813,-19.10322 1.83714,-2.51248 5.37105,-7.32839 7.85326,-10.70219 2.48222,-3.37378 6.6562,-9.11531 9.27541,-12.75891 5.69959,-7.92877 8.37361,-10.72596 10.25467,-10.72596 z m 67.4796,36.90937 c -2.72866,0 -3.89981,2.45203 -4.21783,8.83305 -0.13837,2.7761 -0.4801,5.27618 -0.75964,5.55574 -0.27953,0.27951 -0.69033,-1.84992 -0.91313,-4.73201 -0.62121,-8.03533 -1.15464,-9.34104 -3.81578,-9.34104 -1.5769,0 -2.01863,0.38216 -2.73162,2.36575 -1.19579,3.32679 -1.2383,3.58126 -1.70532,10.11566 -0.23023,3.22133 -0.63161,5.98093 -0.89194,6.13296 -0.26032,0.15192 -0.6513,-1.72707 -0.86868,-4.17597 -0.41269,-4.64894 -1.01249,-5.89485 -3.08353,-6.40633 -2.93679,-0.72531 -4.0194,2.31874 -4.0442,11.36882 -0.0166,6.09245 -0.63047,7.25319 -2.00039,3.7853 -0.44551,-1.12777 -1.07645,-2.68931 -1.4025,-3.47008 -0.68665,-1.64431 -2.7396,-1.86365 -4.00131,-0.42788 -1.35837,1.54574 -2.21466,22.77676 -1.30276,32.29984 0.79955,8.34977 1.51443,10.84284 4.75682,16.58813 3.56199,6.31167 8.95028,10.49672 15.80937,12.27987 12.7028,3.30227 25.84285,-2.84613 32.07711,-15.00942 1.464,-2.85629 3.03869,-6.97584 3.49953,-9.15448 1.00167,-4.73545 0.50942,-11.85276 -1.01183,-14.63114 -2.15648,-3.93839 -6.93325,-3.79168 -8.34781,0.25631 -1.31655,3.76754 -2.23669,2.72618 -1.77715,-2.01125 0.2272,-2.34232 0.46431,-10.14812 0.52761,-17.34622 0.10403,-11.85152 5.6e-4,-13.20704 -1.09812,-14.35365 -1.36477,-1.42427 -3.32739,-1.65693 -4.14032,-0.49093 -0.29726,0.42635 -0.99138,1.98549 -1.54254,3.46491 -0.55113,1.47938 -1.30223,2.76294 -1.66966,2.85254 -0.38333,0.0934 -0.85639,-2.17121 -1.11001,-5.31337 -0.55943,-6.93108 -1.54555,-9.03511 -4.23437,-9.03511 z m -0.0956,3.10265 c 0.47159,0.15272 0.90885,0.93126 1.2237,2.30736 0.37685,1.64697 1.33058,15.48459 1.88877,27.39832 0.099,2.11272 1.60722,-2.63861 2.67271,-8.42067 1.56831,-8.51052 3.32707,-13.6617 4.66483,-13.6617 0.87085,0 1.002,2.76869 1.002,21.13566 v 21.13618 l 1.46296,0.19689 c 1.27963,0.17201 1.63465,-0.34963 2.83911,-4.16926 0.75717,-2.40114 1.37666,-4.77519 1.37666,-5.27565 0,-1.10263 1.30746,-2.42414 2.3983,-2.42414 0.43718,0 1.42919,1.27464 2.20452,2.83239 5.32345,10.69592 -5.64115,31.1962 -18.48983,34.56998 -9.77389,2.56639 -19.01089,-0.12802 -25.04963,-7.30653 -4.66797,-5.54906 -5.04967,-6.45562 -6.82698,-16.21555 -1.06947,-5.87287 -1.40613,-32.48794 -0.42943,-33.94211 1.30668,-1.9454 3.9433,4.80407 4.0628,10.39936 0.0236,1.1052 0.36793,2.80843 0.76481,3.7853 l 0.72141,1.77612 0.96945,-1.73426 c 0.66562,-1.19074 1.09679,-4.84921 1.37511,-11.67216 0.22296,-5.46578 0.68535,-10.64749 1.02784,-11.51505 0.58992,-1.4942 0.6604,-1.51335 1.33945,-0.36742 0.9485,1.60069 2.49965,10.0276 2.51665,13.66945 0.0174,3.81742 1.40612,10.24267 2.07532,9.60148 0.29033,-0.27814 0.85911,-5.33218 1.26401,-11.23136 1.16933,-17.03735 2.90797,-23.64236 4.61884,-17.54828 0.37152,1.32334 0.99165,7.0906 1.37821,12.81627 0.6119,9.06352 0.90444,11.89177 1.37149,13.24932 0.36187,1.05182 1.38155,-4.28682 1.68672,-8.83253 0.57036,-8.49598 1.68992,-17.19598 2.45928,-19.10943 0.45329,-1.12733 0.95933,-1.60069 1.43092,-1.44798 z m 221.67794,0.97462 c -1.25295,0.22133 -2.80548,3.8817 -5.8322,12.3486 -1.73239,4.84614 -3.55674,9.56855 -4.05402,10.49393 -1.07958,2.00895 -2.01239,2.21124 -12.61835,2.74196 -12.91299,0.64616 -17.03513,1.17806 -17.03513,2.19728 0,0.29026 1.27752,1.46686 2.8391,2.61483 1.56157,1.14798 2.98976,2.25918 3.17345,2.4691 0.18374,0.20995 2.28791,1.63761 4.6762,3.17293 11.66325,7.49797 12.15623,8.23808 9.76736,14.66835 -1.63443,4.39952 -3.90152,12.82693 -4.73821,17.61443 -0.22744,1.30128 -0.1659,2.36627 0.13643,2.36627 1.0177,0 5.97404,-3.58637 13.92834,-10.07794 6.38184,-5.20832 7.18394,-5.52041 10.66034,-4.14859 1.35415,0.53434 4.60789,2.49418 7.23056,4.35478 7.75693,5.50313 13.94783,9.24078 15.30604,9.24078 1.12199,0 1.21496,-0.30958 0.79685,-2.64687 -0.41055,-2.29494 -2.11712,-7.26925 -5.92625,-17.27388 -1.15914,-3.04456 -0.50917,-6.87945 1.38338,-8.16229 7.97641,-5.40677 17.59169,-13.36436 17.59169,-14.5588 0,-1.12384 -1.4815,-1.30236 -12.02459,-1.44901 -8.44936,-0.11749 -10.07055,-0.31225 -12.69276,-1.52394 -2.89178,-1.33632 -3.07596,-1.59325 -4.83847,-6.75204 -1.00776,-2.94956 -2.40739,-6.78276 -3.1104,-8.51783 -0.70294,-1.73502 -1.79834,-4.50323 -2.43396,-6.15156 -0.78988,-2.04834 -1.43363,-3.15329 -2.1854,-3.02049 z m 0.35502,8.75761 c 0.11718,0.0173 0.1881,0.12914 0.1881,0.35605 0,0.14125 1.1745,3.39346 2.61018,7.22695 2.19187,5.8528 2.46129,7.08662 1.68103,7.69823 -0.98834,0.77465 -8.63787,1.17604 -9.77201,0.51263 -1.25003,-0.7312 0.26105,-6.46484 3.67936,-13.95987 0.49617,-1.0877 1.26179,-1.8858 1.61334,-1.83399 z m 1.27124,20.01531 c 3.0836,0.47637 5.93627,2.25759 8.08684,5.27151 2.81528,3.9454 1.189,11.00697 -3.21737,13.97021 -2.26807,1.5253 -5.05593,2.33658 -6.95462,2.02365 -3.72843,-0.6145 -4.65186,-1.04549 -7.43933,-3.47214 -3.13183,-2.7264 -4.9196,-5.33065 -4.9196,-7.16649 0,-1.89979 2.87269,-6.56215 4.97076,-8.06772 3.07509,-2.20665 6.38972,-3.03539 9.47332,-2.55902 z m 12.08918,0.33487 c 1.04882,-0.12743 3.04779,-0.0758 6.8492,0.0522 4.39814,0.14812 8.1825,0.44522 8.40982,0.65991 0.22731,0.21474 -0.85,1.47726 -2.39469,2.80551 -3.87602,3.33305 -10.51385,7.26743 -11.00191,6.52157 -0.81739,-1.24909 -3.00963,-7.81589 -3.00963,-9.01496 0,-0.58987 0.0984,-0.8968 1.14721,-1.02422 z m -40.17791,0.49195 c 5.28252,-0.63161 12.97647,0.20572 12.97647,1.41232 0,0.37373 -0.47184,2.21346 -1.04903,4.08864 -0.57719,1.87524 -1.25375,3.40686 -1.50327,3.40186 -0.9011,-0.0151 -6.544,-3.30216 -10.08982,-5.87768 l -3.62407,-2.63188 z m 25.60413,0.91364 c -4.09944,0.45853 -6.96373,2.00645 -8.74727,4.72685 -2.57377,3.92564 -0.50031,9.12573 4.47052,11.21223 6.71502,2.81869 14.36295,-0.96834 14.36295,-7.11222 0,-5.7891 -4.22064,-9.48293 -10.0862,-8.82686 z m 1.74253,1.96267 c 2.71025,0.48021 6.33966,4.14603 6.33966,6.40323 0,2.54801 -1.78654,5.1144 -4.08761,5.87199 -5.95385,1.96022 -11.27786,-0.99956 -11.27786,-6.2699 0,-1.87172 0.42925,-2.72335 2.00091,-3.97236 2.56064,-2.03285 4.25147,-2.52432 7.0249,-2.03296 z m -1.04284,3.19154 c -1.22307,-0.0974 -2.51399,0.0504 -3.13934,0.50178 -1.24477,0.89849 -1.02509,4.06663 0.33383,4.81418 3.69412,2.03205 7.70278,-1.11401 5.53816,-4.34651 -0.3545,-0.52938 -1.50957,-0.87207 -2.73265,-0.96945 z m 13.20695,12.19719 c 1.14927,0.67085 3.82848,6.6824 5.0922,11.42618 1.15959,4.35307 1.11786,5.04143 -0.21446,3.52536 -0.46475,-0.52889 -1.15335,-0.9617 -1.52962,-0.9617 -0.8456,0 -6.68929,-3.72484 -9.84075,-6.27248 l -2.33836,-1.89033 2.57659,-2.25722 c 3.5561,-3.11581 5.3135,-4.119 6.2544,-3.56981 z m -26.51104,0.10955 c 1.43557,0 7.97756,4.73266 7.98556,5.77691 0.008,1.11698 -4.81297,4.65822 -9.25835,6.8001 -1.48798,0.71689 -2.97678,1.30328 -3.30833,1.30328 -0.70445,0 1.2361,-8.07006 2.76882,-11.51454 0.57905,-1.30128 1.39459,-2.36575 1.8123,-2.36575 z" />
  </g>
</svg>
